G04*
G04 #@! TF.GenerationSoftware,Altium Limited,Altium Designer,18.0.7 (293)*
G04*
G04 Layer_Color=8388736*
%FSLAX25Y25*%
%MOIN*%
G70*
G01*
G75*
%ADD11R,0.08800X0.08800*%
%ADD12R,0.08800X0.08800*%
%ADD13C,0.02800*%
%ADD14C,0.09800*%
%ADD15O,0.09658X0.14580*%
%ADD16O,0.14580X0.09658*%
%ADD17C,0.23716*%
%ADD18O,0.23622X0.23716*%
%ADD19C,0.01968*%
D11*
X840512Y305275D02*
D03*
X870525Y424925D02*
D03*
Y414925D02*
D03*
Y404925D02*
D03*
X850525Y384925D02*
D03*
X840525D02*
D03*
X850525Y404925D02*
D03*
X840525Y394925D02*
D03*
X850525Y414925D02*
D03*
Y424925D02*
D03*
X860525Y404925D02*
D03*
Y414925D02*
D03*
Y424925D02*
D03*
X900537Y414925D02*
D03*
Y394925D02*
D03*
Y404925D02*
D03*
X880538D02*
D03*
X890537D02*
D03*
X880538Y414925D02*
D03*
X890537D02*
D03*
Y424925D02*
D03*
X880538D02*
D03*
X900537Y384925D02*
D03*
X880538Y384850D02*
D03*
X890537D02*
D03*
X880538Y394850D02*
D03*
X890537D02*
D03*
X850525D02*
D03*
X860525Y384850D02*
D03*
Y394850D02*
D03*
X870525D02*
D03*
Y384850D02*
D03*
X860513Y205200D02*
D03*
X880525Y255200D02*
D03*
X870525D02*
D03*
Y205200D02*
D03*
Y225200D02*
D03*
X880525D02*
D03*
Y215200D02*
D03*
X870525D02*
D03*
Y235200D02*
D03*
X880525D02*
D03*
Y245200D02*
D03*
X870525D02*
D03*
X900525Y295275D02*
D03*
Y305275D02*
D03*
Y325275D02*
D03*
Y315275D02*
D03*
Y335275D02*
D03*
Y345275D02*
D03*
Y375275D02*
D03*
Y355275D02*
D03*
Y365275D02*
D03*
X870525Y305275D02*
D03*
X880525D02*
D03*
Y295275D02*
D03*
X870525D02*
D03*
Y275275D02*
D03*
X880525D02*
D03*
Y285275D02*
D03*
X870525D02*
D03*
X890525D02*
D03*
Y295275D02*
D03*
Y305275D02*
D03*
X880525Y265275D02*
D03*
X870525D02*
D03*
Y345275D02*
D03*
X880525D02*
D03*
Y335275D02*
D03*
X870525D02*
D03*
Y315275D02*
D03*
X880525D02*
D03*
Y325275D02*
D03*
X870525D02*
D03*
X890525D02*
D03*
Y315275D02*
D03*
Y335275D02*
D03*
Y345275D02*
D03*
Y375275D02*
D03*
Y355275D02*
D03*
Y365275D02*
D03*
X870525D02*
D03*
X880525D02*
D03*
Y355275D02*
D03*
X870525D02*
D03*
Y375275D02*
D03*
X880525D02*
D03*
X580513D02*
D03*
X570512D02*
D03*
Y355275D02*
D03*
X580513D02*
D03*
Y365275D02*
D03*
X570512D02*
D03*
X590513D02*
D03*
X600513D02*
D03*
Y355275D02*
D03*
X590513D02*
D03*
Y375275D02*
D03*
X600513D02*
D03*
X640513D02*
D03*
X630513D02*
D03*
Y355275D02*
D03*
X640513D02*
D03*
Y365275D02*
D03*
X630513D02*
D03*
X610512D02*
D03*
X620512D02*
D03*
Y355275D02*
D03*
X610512D02*
D03*
Y375275D02*
D03*
X620512D02*
D03*
X610512Y345275D02*
D03*
X620512D02*
D03*
Y335275D02*
D03*
X610512D02*
D03*
Y315275D02*
D03*
X620512D02*
D03*
Y325275D02*
D03*
X610512D02*
D03*
X630513D02*
D03*
X640513D02*
D03*
Y315275D02*
D03*
X630513D02*
D03*
Y335275D02*
D03*
X640513D02*
D03*
Y345275D02*
D03*
X630513D02*
D03*
X590513D02*
D03*
X600513D02*
D03*
Y335275D02*
D03*
X590513D02*
D03*
Y315275D02*
D03*
X600513D02*
D03*
Y325275D02*
D03*
X590513D02*
D03*
X570512D02*
D03*
X580513D02*
D03*
Y315275D02*
D03*
X570512D02*
D03*
Y335275D02*
D03*
X580513D02*
D03*
Y345275D02*
D03*
X570512D02*
D03*
X650513D02*
D03*
X660512D02*
D03*
Y335275D02*
D03*
X650513D02*
D03*
Y315275D02*
D03*
X660512D02*
D03*
Y325275D02*
D03*
X650513D02*
D03*
X670512D02*
D03*
X680513D02*
D03*
Y315275D02*
D03*
X670512D02*
D03*
Y335275D02*
D03*
X680513D02*
D03*
Y345275D02*
D03*
X670512D02*
D03*
X710512D02*
D03*
X720512D02*
D03*
Y335275D02*
D03*
X710512D02*
D03*
Y315275D02*
D03*
X720512D02*
D03*
Y325275D02*
D03*
X710512D02*
D03*
X690513D02*
D03*
X700513D02*
D03*
Y315275D02*
D03*
X690513D02*
D03*
Y335275D02*
D03*
X700513D02*
D03*
Y345275D02*
D03*
X690513D02*
D03*
X700513Y375275D02*
D03*
X690513D02*
D03*
Y355275D02*
D03*
X700513D02*
D03*
Y365275D02*
D03*
X690513D02*
D03*
X710512D02*
D03*
X720512D02*
D03*
Y355275D02*
D03*
X710512D02*
D03*
Y375275D02*
D03*
X720512D02*
D03*
X680513D02*
D03*
X670512D02*
D03*
Y355275D02*
D03*
X680513D02*
D03*
Y365275D02*
D03*
X670512D02*
D03*
X650513D02*
D03*
X660512D02*
D03*
Y355275D02*
D03*
X650513D02*
D03*
Y375275D02*
D03*
X660512D02*
D03*
X820512D02*
D03*
X810513D02*
D03*
Y355275D02*
D03*
X820512D02*
D03*
Y365275D02*
D03*
X810513D02*
D03*
X830513D02*
D03*
X840512D02*
D03*
Y355275D02*
D03*
X830513D02*
D03*
Y375275D02*
D03*
X840512D02*
D03*
X850513Y365275D02*
D03*
Y355275D02*
D03*
Y375275D02*
D03*
Y345275D02*
D03*
Y335275D02*
D03*
Y315275D02*
D03*
Y325275D02*
D03*
X830513Y345275D02*
D03*
X840512D02*
D03*
Y335275D02*
D03*
X830513D02*
D03*
Y315275D02*
D03*
X840512D02*
D03*
Y325275D02*
D03*
X830513D02*
D03*
X810513D02*
D03*
X820512D02*
D03*
Y315275D02*
D03*
X810513D02*
D03*
Y335275D02*
D03*
X820512D02*
D03*
Y345275D02*
D03*
X810513D02*
D03*
X730513D02*
D03*
X740513D02*
D03*
Y335275D02*
D03*
X730513D02*
D03*
Y315275D02*
D03*
X740513D02*
D03*
Y325275D02*
D03*
X730513D02*
D03*
X750513D02*
D03*
X760512D02*
D03*
Y315275D02*
D03*
X750513D02*
D03*
Y335275D02*
D03*
X760512D02*
D03*
Y345275D02*
D03*
X750513D02*
D03*
X790513D02*
D03*
X800513D02*
D03*
Y335275D02*
D03*
X790513D02*
D03*
Y315275D02*
D03*
X800513D02*
D03*
Y325275D02*
D03*
X790513D02*
D03*
X770512D02*
D03*
X780513D02*
D03*
Y315275D02*
D03*
X770512D02*
D03*
Y335275D02*
D03*
X780513D02*
D03*
Y345275D02*
D03*
X770512D02*
D03*
Y355275D02*
D03*
X780513D02*
D03*
Y365275D02*
D03*
X770512D02*
D03*
X790513D02*
D03*
X800513D02*
D03*
Y355275D02*
D03*
X790513D02*
D03*
Y375275D02*
D03*
X800513D02*
D03*
X750513Y355275D02*
D03*
X760512D02*
D03*
Y365275D02*
D03*
X750513D02*
D03*
X730513D02*
D03*
X740513D02*
D03*
Y355275D02*
D03*
X730513D02*
D03*
Y375275D02*
D03*
X740513D02*
D03*
X730513Y305275D02*
D03*
X740513D02*
D03*
Y295275D02*
D03*
X730513D02*
D03*
Y275275D02*
D03*
X740513D02*
D03*
Y285275D02*
D03*
X730513D02*
D03*
X750513D02*
D03*
X760512D02*
D03*
Y275275D02*
D03*
X750513D02*
D03*
Y295275D02*
D03*
X760512D02*
D03*
Y305275D02*
D03*
X750513D02*
D03*
X790513D02*
D03*
X800513D02*
D03*
Y295275D02*
D03*
X790513D02*
D03*
Y275275D02*
D03*
X800513D02*
D03*
Y285275D02*
D03*
X790513D02*
D03*
X770512D02*
D03*
X780513D02*
D03*
Y275275D02*
D03*
X770512D02*
D03*
Y295275D02*
D03*
X780513D02*
D03*
Y305275D02*
D03*
X770512D02*
D03*
Y265275D02*
D03*
X780513D02*
D03*
Y255275D02*
D03*
X770512D02*
D03*
X780513Y235275D02*
D03*
Y245275D02*
D03*
X770512D02*
D03*
X790513D02*
D03*
X800513D02*
D03*
Y235275D02*
D03*
X790513D02*
D03*
Y255275D02*
D03*
X800513D02*
D03*
Y265275D02*
D03*
X790513D02*
D03*
X760512D02*
D03*
Y255275D02*
D03*
Y245275D02*
D03*
X810513Y265275D02*
D03*
X820512D02*
D03*
Y255275D02*
D03*
X810513D02*
D03*
Y235275D02*
D03*
X820512D02*
D03*
Y245275D02*
D03*
X810513D02*
D03*
X830513D02*
D03*
X840512D02*
D03*
Y235275D02*
D03*
X830513D02*
D03*
Y255275D02*
D03*
X840512D02*
D03*
Y265275D02*
D03*
X830513D02*
D03*
X850513Y245275D02*
D03*
X860513D02*
D03*
Y235275D02*
D03*
X850513D02*
D03*
Y255275D02*
D03*
X860513D02*
D03*
X850513Y265275D02*
D03*
Y305275D02*
D03*
Y295275D02*
D03*
Y275275D02*
D03*
Y285275D02*
D03*
X830513Y305275D02*
D03*
X840512Y295275D02*
D03*
X830513D02*
D03*
Y275275D02*
D03*
X840512D02*
D03*
Y285275D02*
D03*
X830513D02*
D03*
X810513D02*
D03*
X820512D02*
D03*
Y275275D02*
D03*
X810513D02*
D03*
Y295275D02*
D03*
X820512D02*
D03*
Y305275D02*
D03*
X810513D02*
D03*
X650513D02*
D03*
X660512D02*
D03*
Y295275D02*
D03*
X650513D02*
D03*
Y275275D02*
D03*
X660512D02*
D03*
Y285275D02*
D03*
X650513D02*
D03*
X670512D02*
D03*
X680513D02*
D03*
Y275275D02*
D03*
X670512D02*
D03*
Y295275D02*
D03*
X680513D02*
D03*
Y305275D02*
D03*
X670512D02*
D03*
X710512D02*
D03*
X720512D02*
D03*
Y295275D02*
D03*
X710512D02*
D03*
Y275275D02*
D03*
X720512D02*
D03*
Y285275D02*
D03*
X710512D02*
D03*
X690513D02*
D03*
X700513D02*
D03*
Y275275D02*
D03*
X690513D02*
D03*
Y295275D02*
D03*
X700513D02*
D03*
Y305275D02*
D03*
X690513D02*
D03*
X570512Y265275D02*
D03*
X580513D02*
D03*
Y255275D02*
D03*
X570512D02*
D03*
Y235275D02*
D03*
X580513D02*
D03*
Y245275D02*
D03*
X570512D02*
D03*
X590513D02*
D03*
X600513D02*
D03*
Y235275D02*
D03*
X590513D02*
D03*
Y255275D02*
D03*
X600513D02*
D03*
Y265275D02*
D03*
X590513D02*
D03*
X610512Y305275D02*
D03*
X620512D02*
D03*
Y295275D02*
D03*
X610512D02*
D03*
Y275275D02*
D03*
X620512D02*
D03*
Y285275D02*
D03*
X610512D02*
D03*
X630513D02*
D03*
X640513D02*
D03*
Y275275D02*
D03*
X630513D02*
D03*
Y295275D02*
D03*
X640513D02*
D03*
Y305275D02*
D03*
X630513D02*
D03*
X590513D02*
D03*
X600513D02*
D03*
Y295275D02*
D03*
X590513D02*
D03*
Y275275D02*
D03*
X600513D02*
D03*
Y285275D02*
D03*
X590513D02*
D03*
X570512D02*
D03*
X580513D02*
D03*
Y275275D02*
D03*
X570512D02*
D03*
Y295275D02*
D03*
X580513D02*
D03*
Y305275D02*
D03*
X570512D02*
D03*
X550488Y345225D02*
D03*
X560488D02*
D03*
Y335225D02*
D03*
X550488D02*
D03*
X530487D02*
D03*
X540487D02*
D03*
Y345225D02*
D03*
X530487D02*
D03*
Y375225D02*
D03*
Y355225D02*
D03*
X540487D02*
D03*
Y365225D02*
D03*
X530487D02*
D03*
X550488D02*
D03*
X560488D02*
D03*
Y355225D02*
D03*
X550488D02*
D03*
Y375225D02*
D03*
X560488D02*
D03*
X850537Y225213D02*
D03*
X860538D02*
D03*
Y215212D02*
D03*
X850537D02*
D03*
Y205212D02*
D03*
X830538Y225213D02*
D03*
X840537D02*
D03*
Y215212D02*
D03*
X830538D02*
D03*
X840537Y205212D02*
D03*
X830538D02*
D03*
X810538D02*
D03*
X820537D02*
D03*
X810538Y215212D02*
D03*
X820537D02*
D03*
Y225213D02*
D03*
X810538D02*
D03*
X790538D02*
D03*
X800537D02*
D03*
Y215212D02*
D03*
X790538D02*
D03*
X800537Y205212D02*
D03*
X790538D02*
D03*
X780538D02*
D03*
Y215212D02*
D03*
Y225213D02*
D03*
X570500Y225325D02*
D03*
Y215325D02*
D03*
Y205325D02*
D03*
X580500D02*
D03*
X590500D02*
D03*
X580500Y215325D02*
D03*
X590500D02*
D03*
Y225325D02*
D03*
X580500D02*
D03*
X600500D02*
D03*
Y215325D02*
D03*
Y205325D02*
D03*
X750513Y385275D02*
D03*
X760512D02*
D03*
Y375275D02*
D03*
X750513D02*
D03*
Y395275D02*
D03*
X760512D02*
D03*
X770512Y385275D02*
D03*
X780513Y375275D02*
D03*
X770512D02*
D03*
Y395275D02*
D03*
X860513Y285275D02*
D03*
Y275275D02*
D03*
Y295275D02*
D03*
Y305275D02*
D03*
Y325275D02*
D03*
Y315275D02*
D03*
Y335275D02*
D03*
Y345275D02*
D03*
Y375275D02*
D03*
Y355275D02*
D03*
Y365275D02*
D03*
Y265275D02*
D03*
D12*
X530487Y385225D02*
D03*
X540487D02*
D03*
Y375225D02*
D03*
X530487Y395225D02*
D03*
X540487D02*
D03*
D13*
X732713Y244462D02*
D03*
X736763D02*
D03*
X740853Y244429D02*
D03*
X740987Y267536D02*
D03*
X736937D02*
D03*
X732887D02*
D03*
X705150Y244350D02*
D03*
X709200D02*
D03*
X713291Y244317D02*
D03*
X713424Y267423D02*
D03*
X709374D02*
D03*
X705324D02*
D03*
X677588Y244350D02*
D03*
X681637D02*
D03*
X685728Y244317D02*
D03*
X685862Y267423D02*
D03*
X681812D02*
D03*
X677762D02*
D03*
X650025Y244350D02*
D03*
X654075D02*
D03*
X658166Y244317D02*
D03*
X658299Y267423D02*
D03*
X654249D02*
D03*
X650199D02*
D03*
X622463Y244350D02*
D03*
X626512D02*
D03*
X630603Y244317D02*
D03*
X630737Y267423D02*
D03*
X626687D02*
D03*
X622637D02*
D03*
X825194Y399038D02*
D03*
X821144D02*
D03*
X817094D02*
D03*
X797632D02*
D03*
X793582D02*
D03*
X789532D02*
D03*
X735082D02*
D03*
X731032D02*
D03*
X726982D02*
D03*
X707519D02*
D03*
X703469D02*
D03*
X699419D02*
D03*
X679957D02*
D03*
X675907D02*
D03*
X671857D02*
D03*
X652394D02*
D03*
X648344D02*
D03*
X644294D02*
D03*
X624832D02*
D03*
X620782D02*
D03*
X616732D02*
D03*
X597269D02*
D03*
X593219D02*
D03*
X589169D02*
D03*
X569707D02*
D03*
X565657D02*
D03*
X561607D02*
D03*
X549788Y311744D02*
D03*
Y307694D02*
D03*
Y303644D02*
D03*
Y284182D02*
D03*
Y280132D02*
D03*
Y276082D02*
D03*
Y248519D02*
D03*
Y252569D02*
D03*
Y256619D02*
D03*
D14*
X743778Y237229D02*
D03*
X729716Y237117D02*
D03*
X716216D02*
D03*
X702153Y237004D02*
D03*
X688653Y237117D02*
D03*
X674591Y237004D02*
D03*
X661091Y237117D02*
D03*
X647028Y237004D02*
D03*
X633528Y237117D02*
D03*
X619466Y237004D02*
D03*
X814057Y391725D02*
D03*
X828119Y391838D02*
D03*
X786494Y391725D02*
D03*
X800557Y391838D02*
D03*
X723944Y391725D02*
D03*
X738007Y391838D02*
D03*
X696382Y391725D02*
D03*
X710444Y391838D02*
D03*
X668819Y391725D02*
D03*
X682882Y391838D02*
D03*
X641257Y391725D02*
D03*
X655319Y391838D02*
D03*
X613694Y391725D02*
D03*
X627757Y391838D02*
D03*
X586132Y391725D02*
D03*
X600194Y391838D02*
D03*
X558569Y391725D02*
D03*
X572632Y391838D02*
D03*
X557100Y300607D02*
D03*
X556987Y314669D02*
D03*
X557100Y273044D02*
D03*
X556987Y287107D02*
D03*
Y259544D02*
D03*
X557100Y245482D02*
D03*
D15*
X661047Y255938D02*
D03*
X647267D02*
D03*
X633488D02*
D03*
X619708D02*
D03*
X696523Y408976D02*
D03*
X710303D02*
D03*
X613846D02*
D03*
X627626D02*
D03*
X668964D02*
D03*
X682744D02*
D03*
X586287D02*
D03*
X600067D02*
D03*
X814240D02*
D03*
X828020D02*
D03*
X743724Y255938D02*
D03*
X729944D02*
D03*
X641405Y408976D02*
D03*
X655185D02*
D03*
X558728D02*
D03*
X572508D02*
D03*
X688607Y255938D02*
D03*
X674827D02*
D03*
X716166D02*
D03*
X702386D02*
D03*
X724083Y408976D02*
D03*
X737862D02*
D03*
X786681D02*
D03*
X800460D02*
D03*
D16*
X539886Y245697D02*
D03*
Y259477D02*
D03*
Y300816D02*
D03*
Y314595D02*
D03*
Y273256D02*
D03*
Y287036D02*
D03*
D17*
X762271Y417351D02*
D03*
Y224437D02*
D03*
X533925D02*
D03*
D18*
Y417351D02*
D03*
D19*
X739616Y240267D02*
D03*
X733991D02*
D03*
X712053Y240154D02*
D03*
X706428D02*
D03*
X684491D02*
D03*
X678866D02*
D03*
X656928D02*
D03*
X651303D02*
D03*
X629366D02*
D03*
X623741D02*
D03*
X818332Y394875D02*
D03*
X823957D02*
D03*
X790769D02*
D03*
X796394D02*
D03*
X728219D02*
D03*
X733844D02*
D03*
X700657D02*
D03*
X706282D02*
D03*
X673094D02*
D03*
X678719D02*
D03*
X645532D02*
D03*
X651157D02*
D03*
X617969D02*
D03*
X623594D02*
D03*
X590407D02*
D03*
X596032D02*
D03*
X562844D02*
D03*
X568469D02*
D03*
X553950Y304882D02*
D03*
Y310507D02*
D03*
Y277319D02*
D03*
Y282944D02*
D03*
Y255382D02*
D03*
Y249757D02*
D03*
M02*
