G04*
G04 #@! TF.GenerationSoftware,Altium Limited,Altium Designer,18.0.7 (293)*
G04*
G04 Layer_Physical_Order=1*
G04 Layer_Color=255*
%FSLAX25Y25*%
%MOIN*%
G70*
G01*
G75*
%ADD10C,0.01000*%
%ADD20C,0.00425*%
%ADD21O,0.13780X0.08858*%
%ADD22O,0.08858X0.13780*%
%ADD23R,0.08000X0.08000*%
%ADD24R,0.08000X0.08000*%
%ADD25C,0.02000*%
%ADD26C,0.09000*%
%ADD27C,0.06000*%
%ADD28O,0.05906X0.06000*%
%ADD29C,0.03937*%
D10*
X538234Y314651D02*
X543173Y309713D01*
X548550D01*
X729675Y237037D02*
X734737Y242100D01*
X730013Y255938D02*
X734737Y251213D01*
Y245587D02*
Y251213D01*
Y242100D02*
Y243112D01*
X738788Y250965D02*
X743726Y255903D01*
X738788Y245587D02*
Y250965D01*
Y242107D02*
Y243112D01*
Y242107D02*
X743744Y237150D01*
X702112Y236925D02*
X707175Y241987D01*
X702450Y255825D02*
X707175Y251100D01*
Y245475D02*
Y251100D01*
Y241987D02*
Y243000D01*
X711225Y250852D02*
X716163Y255791D01*
X711225Y245475D02*
Y250852D01*
Y241994D02*
Y243000D01*
Y241994D02*
X716182Y237037D01*
X674550Y236925D02*
X679612Y241987D01*
X674888Y255825D02*
X679612Y251100D01*
Y245475D02*
Y251100D01*
Y241987D02*
Y243000D01*
X683663Y250852D02*
X688601Y255791D01*
X683663Y245475D02*
Y250852D01*
Y241994D02*
Y243000D01*
Y241994D02*
X688619Y237037D01*
X646987Y236925D02*
X652050Y241987D01*
X647325Y255825D02*
X652050Y251100D01*
Y245475D02*
Y251100D01*
Y241987D02*
Y243000D01*
X656100Y250852D02*
X661038Y255791D01*
X656100Y245475D02*
Y250852D01*
Y241994D02*
Y243000D01*
Y241994D02*
X661057Y237037D01*
X619425Y236925D02*
X624487Y241987D01*
X619763Y255825D02*
X624487Y251100D01*
Y245475D02*
Y251100D01*
Y241987D02*
Y243000D01*
X628538Y250852D02*
X633476Y255791D01*
X628538Y245475D02*
Y250852D01*
Y241994D02*
Y243000D01*
Y241994D02*
X633494Y237037D01*
X823162Y396794D02*
Y397800D01*
Y400275D02*
Y405652D01*
X828101Y410591D01*
X819112Y396788D02*
Y397800D01*
Y400275D02*
Y405900D01*
X814388Y410625D02*
X819112Y405900D01*
Y395775D02*
Y396788D01*
X818325Y394988D02*
X819112Y395775D01*
X823162Y396225D02*
Y396794D01*
Y396225D02*
X824063Y395325D01*
X795600Y396794D02*
Y397800D01*
Y400275D02*
Y405652D01*
X800539Y410591D01*
X791550Y396788D02*
Y397800D01*
Y400275D02*
Y405900D01*
X786825Y410625D02*
X791550Y405900D01*
Y395775D02*
Y396788D01*
X790763Y394988D02*
X791550Y395775D01*
X795600Y396225D02*
Y396794D01*
Y396225D02*
X796500Y395325D01*
X733050Y396794D02*
Y397800D01*
Y400275D02*
Y405652D01*
X737989Y410591D01*
X729000Y396788D02*
Y397800D01*
Y400275D02*
Y405900D01*
X724275Y410625D02*
X729000Y405900D01*
Y395775D02*
Y396788D01*
X728212Y394988D02*
X729000Y395775D01*
X733050Y396225D02*
Y396794D01*
Y396225D02*
X733950Y395325D01*
X705487Y396794D02*
Y397800D01*
Y400275D02*
Y405652D01*
X710426Y410591D01*
X701438Y396788D02*
Y397800D01*
Y400275D02*
Y405900D01*
X696712Y410625D02*
X701438Y405900D01*
Y395775D02*
Y396788D01*
X700650Y394988D02*
X701438Y395775D01*
X705487Y396225D02*
Y396794D01*
Y396225D02*
X706388Y395325D01*
X677925Y396794D02*
Y397800D01*
Y400275D02*
Y405652D01*
X682864Y410591D01*
X673875Y396788D02*
Y397800D01*
Y400275D02*
Y405900D01*
X669150Y410625D02*
X673875Y405900D01*
Y395775D02*
Y396788D01*
X673088Y394988D02*
X673875Y395775D01*
X677925Y396225D02*
Y396794D01*
Y396225D02*
X678825Y395325D01*
X650362Y396794D02*
Y397800D01*
Y400275D02*
Y405652D01*
X655301Y410591D01*
X646313Y396788D02*
Y397800D01*
Y400275D02*
Y405900D01*
X641587Y410625D02*
X646313Y405900D01*
Y395775D02*
Y396788D01*
X645525Y394988D02*
X646313Y395775D01*
X650362Y396225D02*
Y396794D01*
Y396225D02*
X651263Y395325D01*
X622800Y396794D02*
Y397800D01*
Y400275D02*
Y405652D01*
X627739Y410591D01*
X618750Y396788D02*
Y397800D01*
Y400275D02*
Y405900D01*
X614025Y410625D02*
X618750Y405900D01*
Y395775D02*
Y396788D01*
X617963Y394988D02*
X618750Y395775D01*
X622800Y396225D02*
Y396794D01*
Y396225D02*
X623700Y395325D01*
X595237Y396794D02*
Y397800D01*
Y400275D02*
Y405652D01*
X600176Y410591D01*
X591187Y396788D02*
Y397800D01*
Y400275D02*
Y405900D01*
X586462Y410625D02*
X591187Y405900D01*
Y395775D02*
Y396788D01*
X590400Y394988D02*
X591187Y395775D01*
X595237Y396225D02*
Y396794D01*
Y396225D02*
X596138Y395325D01*
X567675Y396794D02*
Y397800D01*
Y400275D02*
Y405652D01*
X572613Y410591D01*
X563625Y396788D02*
Y397800D01*
Y400275D02*
Y405900D01*
X558900Y410625D02*
X563625Y405900D01*
Y395775D02*
Y396788D01*
X562838Y394988D02*
X563625Y395775D01*
X567675Y396225D02*
Y396794D01*
Y396225D02*
X568575Y395325D01*
X551025Y309713D02*
X552031D01*
X551025Y305662D02*
X552037D01*
X542925D02*
X548550D01*
X538200Y300938D02*
X542925Y305662D01*
X552037D02*
X553050D01*
X553837Y304875D01*
X552031Y309713D02*
X552600D01*
X553500Y310613D01*
X551025Y282150D02*
X552031D01*
X543173D02*
X548550D01*
X538234Y287088D02*
X543173Y282150D01*
X551025Y278100D02*
X552037D01*
X542925D02*
X548550D01*
X538200Y273375D02*
X542925Y278100D01*
X552037D02*
X553050D01*
X553837Y277312D01*
X552031Y282150D02*
X552600D01*
X553500Y283050D01*
X552600Y254588D02*
X553500Y255487D01*
X552031Y254588D02*
X552600D01*
X553050Y250537D02*
X553837Y249750D01*
X552037Y250537D02*
X553050D01*
X538200Y245813D02*
X542925Y250537D01*
X548550D01*
X551025D02*
X552037D01*
X538234Y259526D02*
X543173Y254588D01*
X548550D01*
X551025D02*
X552031D01*
D20*
X734737Y243225D02*
Y245587D01*
X738788Y243225D02*
Y245587D01*
Y243112D02*
Y243225D01*
X707175Y243112D02*
Y245475D01*
X711225Y243112D02*
Y245475D01*
Y243000D02*
Y243112D01*
X679612D02*
Y245475D01*
X683663Y243112D02*
Y245475D01*
Y243000D02*
Y243112D01*
X652050D02*
Y245475D01*
X656100Y243112D02*
Y245475D01*
Y243000D02*
Y243112D01*
X624487D02*
Y245475D01*
X628538Y243112D02*
Y245475D01*
Y243000D02*
Y243112D01*
X823162Y397913D02*
Y400275D01*
X819112Y397913D02*
Y400275D01*
X795600Y397913D02*
Y400275D01*
X791550Y397913D02*
Y400275D01*
X733050Y397913D02*
Y400275D01*
X729000Y397913D02*
Y400275D01*
X705487Y397913D02*
Y400275D01*
X701438Y397913D02*
Y400275D01*
X677925Y397913D02*
Y400275D01*
X673875Y397913D02*
Y400275D01*
X650362Y397913D02*
Y400275D01*
X646313Y397913D02*
Y400275D01*
X622800Y397913D02*
Y400275D01*
X618750Y397913D02*
Y400275D01*
X595237Y397913D02*
Y400275D01*
X591187Y397913D02*
Y400275D01*
X567675Y397913D02*
Y400275D01*
X563625Y397913D02*
Y400275D01*
X548550Y309713D02*
X550913D01*
X548550Y305662D02*
X550913D01*
X548550Y282150D02*
X550913D01*
X548550Y278100D02*
X550913D01*
X548550Y250537D02*
X550913D01*
X548550Y254588D02*
X550913D01*
D21*
X539886Y314595D02*
D03*
Y300816D02*
D03*
Y287036D02*
D03*
Y273256D02*
D03*
Y245697D02*
D03*
Y259477D02*
D03*
D22*
X572508Y408976D02*
D03*
X558728D02*
D03*
X586287D02*
D03*
X600067D02*
D03*
X627626D02*
D03*
X613846D02*
D03*
X641405D02*
D03*
X655185D02*
D03*
X710303D02*
D03*
X696523D02*
D03*
X668964D02*
D03*
X682744D02*
D03*
X724083D02*
D03*
X737862D02*
D03*
X674827Y255938D02*
D03*
X688607D02*
D03*
X661047D02*
D03*
X647267D02*
D03*
X619708D02*
D03*
X633488D02*
D03*
X716166D02*
D03*
X702386D02*
D03*
X729944D02*
D03*
X743724D02*
D03*
X828020Y408976D02*
D03*
X814240D02*
D03*
X786681D02*
D03*
X800460D02*
D03*
D23*
X840512Y305275D02*
D03*
X870525Y424925D02*
D03*
Y414925D02*
D03*
Y404925D02*
D03*
X850525Y384925D02*
D03*
X840525D02*
D03*
X850525Y404925D02*
D03*
X840525Y394925D02*
D03*
X850525Y414925D02*
D03*
Y424925D02*
D03*
X860525Y404925D02*
D03*
Y414925D02*
D03*
Y424925D02*
D03*
X900537Y414925D02*
D03*
Y394925D02*
D03*
Y404925D02*
D03*
X880538D02*
D03*
X890537D02*
D03*
X880538Y414925D02*
D03*
X890537D02*
D03*
Y424925D02*
D03*
X880538D02*
D03*
X900537Y384925D02*
D03*
X880538Y384850D02*
D03*
X890537D02*
D03*
X880538Y394850D02*
D03*
X890537D02*
D03*
X850525D02*
D03*
X860525Y384850D02*
D03*
Y394850D02*
D03*
X870525D02*
D03*
Y384850D02*
D03*
X860513Y205200D02*
D03*
X870525Y255200D02*
D03*
Y225200D02*
D03*
Y215200D02*
D03*
Y235200D02*
D03*
Y245200D02*
D03*
X900525Y305275D02*
D03*
Y325275D02*
D03*
Y315275D02*
D03*
Y335275D02*
D03*
Y345275D02*
D03*
Y375275D02*
D03*
Y355275D02*
D03*
Y365275D02*
D03*
X870525Y305275D02*
D03*
X880525D02*
D03*
Y295275D02*
D03*
X870525D02*
D03*
Y275275D02*
D03*
X880525Y285275D02*
D03*
X870525D02*
D03*
X890525Y295275D02*
D03*
Y305275D02*
D03*
X870525Y265275D02*
D03*
Y345275D02*
D03*
X880525D02*
D03*
Y335275D02*
D03*
X870525D02*
D03*
Y315275D02*
D03*
X880525D02*
D03*
Y325275D02*
D03*
X870525D02*
D03*
X890525D02*
D03*
Y315275D02*
D03*
Y335275D02*
D03*
Y345275D02*
D03*
Y375275D02*
D03*
Y355275D02*
D03*
Y365275D02*
D03*
X870525D02*
D03*
X880525D02*
D03*
Y355275D02*
D03*
X870525D02*
D03*
Y375275D02*
D03*
X880525D02*
D03*
X580513D02*
D03*
X570512D02*
D03*
Y355275D02*
D03*
X580513D02*
D03*
Y365275D02*
D03*
X570512D02*
D03*
X590513D02*
D03*
X600513D02*
D03*
Y355275D02*
D03*
X590513D02*
D03*
Y375275D02*
D03*
X600513D02*
D03*
X640513D02*
D03*
X630513D02*
D03*
Y355275D02*
D03*
X640513D02*
D03*
Y365275D02*
D03*
X630513D02*
D03*
X610512D02*
D03*
X620512D02*
D03*
Y355275D02*
D03*
X610512D02*
D03*
Y375275D02*
D03*
X620512D02*
D03*
X610512Y345275D02*
D03*
X620512D02*
D03*
Y335275D02*
D03*
X610512D02*
D03*
Y315275D02*
D03*
X620512D02*
D03*
Y325275D02*
D03*
X610512D02*
D03*
X630513D02*
D03*
X640513D02*
D03*
Y315275D02*
D03*
X630513D02*
D03*
Y335275D02*
D03*
X640513D02*
D03*
Y345275D02*
D03*
X630513D02*
D03*
X590513D02*
D03*
X600513D02*
D03*
Y335275D02*
D03*
X590513D02*
D03*
Y315275D02*
D03*
X600513D02*
D03*
Y325275D02*
D03*
X590513D02*
D03*
X570512D02*
D03*
X580513D02*
D03*
Y315275D02*
D03*
X570512D02*
D03*
Y335275D02*
D03*
X580513D02*
D03*
Y345275D02*
D03*
X570512D02*
D03*
X650513D02*
D03*
X660512D02*
D03*
Y335275D02*
D03*
X650513D02*
D03*
Y315275D02*
D03*
X660512D02*
D03*
Y325275D02*
D03*
X650513D02*
D03*
X670512D02*
D03*
X680513D02*
D03*
Y315275D02*
D03*
X670512D02*
D03*
Y335275D02*
D03*
X680513D02*
D03*
Y345275D02*
D03*
X670512D02*
D03*
X710512D02*
D03*
X720512D02*
D03*
Y335275D02*
D03*
X710512D02*
D03*
Y315275D02*
D03*
X720512D02*
D03*
Y325275D02*
D03*
X710512D02*
D03*
X690513D02*
D03*
X700513D02*
D03*
Y315275D02*
D03*
X690513D02*
D03*
Y335275D02*
D03*
X700513D02*
D03*
Y345275D02*
D03*
X690513D02*
D03*
X700513Y375275D02*
D03*
X690513D02*
D03*
Y355275D02*
D03*
X700513D02*
D03*
Y365275D02*
D03*
X690513D02*
D03*
X710512D02*
D03*
X720512D02*
D03*
Y355275D02*
D03*
X710512D02*
D03*
Y375275D02*
D03*
X720512D02*
D03*
X680513D02*
D03*
X670512D02*
D03*
Y355275D02*
D03*
X680513D02*
D03*
Y365275D02*
D03*
X670512D02*
D03*
X650513D02*
D03*
X660512D02*
D03*
Y355275D02*
D03*
X650513D02*
D03*
Y375275D02*
D03*
X660512D02*
D03*
X820512D02*
D03*
X810513D02*
D03*
Y355275D02*
D03*
X820512D02*
D03*
Y365275D02*
D03*
X810513D02*
D03*
X830513D02*
D03*
X840512D02*
D03*
Y355275D02*
D03*
X830513D02*
D03*
Y375275D02*
D03*
X840512D02*
D03*
X850513Y365275D02*
D03*
Y355275D02*
D03*
Y375275D02*
D03*
Y345275D02*
D03*
Y335275D02*
D03*
Y315275D02*
D03*
Y325275D02*
D03*
X830513Y345275D02*
D03*
X840512D02*
D03*
Y335275D02*
D03*
X830513D02*
D03*
Y315275D02*
D03*
X840512D02*
D03*
Y325275D02*
D03*
X830513D02*
D03*
X810513D02*
D03*
X820512D02*
D03*
Y315275D02*
D03*
X810513D02*
D03*
Y335275D02*
D03*
X820512D02*
D03*
Y345275D02*
D03*
X810513D02*
D03*
X730513D02*
D03*
X740513D02*
D03*
Y335275D02*
D03*
X730513D02*
D03*
Y315275D02*
D03*
X740513D02*
D03*
Y325275D02*
D03*
X730513D02*
D03*
X750513D02*
D03*
X760512D02*
D03*
Y315275D02*
D03*
X750513D02*
D03*
Y335275D02*
D03*
X760512D02*
D03*
Y345275D02*
D03*
X750513D02*
D03*
X790513D02*
D03*
X800513D02*
D03*
Y335275D02*
D03*
X790513D02*
D03*
Y315275D02*
D03*
X800513D02*
D03*
Y325275D02*
D03*
X790513D02*
D03*
X770512D02*
D03*
X780513D02*
D03*
Y315275D02*
D03*
X770512D02*
D03*
Y335275D02*
D03*
X780513D02*
D03*
Y345275D02*
D03*
X770512D02*
D03*
Y355275D02*
D03*
X780513D02*
D03*
Y365275D02*
D03*
X770512D02*
D03*
X790513D02*
D03*
X800513D02*
D03*
Y355275D02*
D03*
X790513D02*
D03*
Y375275D02*
D03*
X800513D02*
D03*
X750513Y355275D02*
D03*
X760512D02*
D03*
Y365275D02*
D03*
X750513D02*
D03*
X730513D02*
D03*
X740513D02*
D03*
Y355275D02*
D03*
X730513D02*
D03*
Y375275D02*
D03*
X740513D02*
D03*
X730513Y305275D02*
D03*
X740513D02*
D03*
Y295275D02*
D03*
X730513D02*
D03*
Y275275D02*
D03*
X740513D02*
D03*
Y285275D02*
D03*
X730513D02*
D03*
X750513D02*
D03*
X760512D02*
D03*
Y275275D02*
D03*
X750513D02*
D03*
Y295275D02*
D03*
X760512D02*
D03*
Y305275D02*
D03*
X750513D02*
D03*
X790513D02*
D03*
X800513D02*
D03*
Y295275D02*
D03*
X790513D02*
D03*
Y275275D02*
D03*
X800513D02*
D03*
Y285275D02*
D03*
X790513D02*
D03*
X770512D02*
D03*
X780513D02*
D03*
Y275275D02*
D03*
X770512D02*
D03*
Y295275D02*
D03*
X780513D02*
D03*
Y305275D02*
D03*
X770512D02*
D03*
Y265275D02*
D03*
X780513D02*
D03*
Y255275D02*
D03*
X770512D02*
D03*
X780513Y235275D02*
D03*
Y245275D02*
D03*
X770512D02*
D03*
X790513D02*
D03*
X800513D02*
D03*
Y235275D02*
D03*
X790513D02*
D03*
Y255275D02*
D03*
X800513D02*
D03*
Y265275D02*
D03*
X790513D02*
D03*
X760512D02*
D03*
Y255275D02*
D03*
Y245275D02*
D03*
X810513Y265275D02*
D03*
X820512D02*
D03*
Y255275D02*
D03*
X810513D02*
D03*
Y235275D02*
D03*
X820512D02*
D03*
Y245275D02*
D03*
X810513D02*
D03*
X830513D02*
D03*
X840512D02*
D03*
Y235275D02*
D03*
X830513D02*
D03*
Y255275D02*
D03*
X840512D02*
D03*
Y265275D02*
D03*
X830513D02*
D03*
X850513Y245275D02*
D03*
X860513D02*
D03*
Y235275D02*
D03*
X850513D02*
D03*
Y255275D02*
D03*
X860513D02*
D03*
X850513Y265275D02*
D03*
Y305275D02*
D03*
Y295275D02*
D03*
Y275275D02*
D03*
Y285275D02*
D03*
X830513Y305275D02*
D03*
X840512Y295275D02*
D03*
X830513D02*
D03*
Y275275D02*
D03*
X840512D02*
D03*
Y285275D02*
D03*
X830513D02*
D03*
X810513D02*
D03*
X820512D02*
D03*
Y275275D02*
D03*
X810513D02*
D03*
Y295275D02*
D03*
X820512D02*
D03*
Y305275D02*
D03*
X810513D02*
D03*
X650513D02*
D03*
X660512D02*
D03*
Y295275D02*
D03*
X650513D02*
D03*
Y275275D02*
D03*
X660512D02*
D03*
Y285275D02*
D03*
X650513D02*
D03*
X670512D02*
D03*
X680513D02*
D03*
Y275275D02*
D03*
X670512D02*
D03*
Y295275D02*
D03*
X680513D02*
D03*
Y305275D02*
D03*
X670512D02*
D03*
X710512D02*
D03*
X720512D02*
D03*
Y295275D02*
D03*
X710512D02*
D03*
Y275275D02*
D03*
X720512D02*
D03*
Y285275D02*
D03*
X710512D02*
D03*
X690513D02*
D03*
X700513D02*
D03*
Y275275D02*
D03*
X690513D02*
D03*
Y295275D02*
D03*
X700513D02*
D03*
Y305275D02*
D03*
X690513D02*
D03*
X570512Y265275D02*
D03*
X580513D02*
D03*
Y255275D02*
D03*
X570512D02*
D03*
Y235275D02*
D03*
X580513D02*
D03*
Y245275D02*
D03*
X570512D02*
D03*
X590513D02*
D03*
X600513D02*
D03*
Y235275D02*
D03*
X590513D02*
D03*
Y255275D02*
D03*
X600513D02*
D03*
Y265275D02*
D03*
X590513D02*
D03*
X610512Y305275D02*
D03*
X620512D02*
D03*
Y295275D02*
D03*
X610512D02*
D03*
Y275275D02*
D03*
X620512D02*
D03*
Y285275D02*
D03*
X610512D02*
D03*
X630513D02*
D03*
X640513D02*
D03*
Y275275D02*
D03*
X630513D02*
D03*
Y295275D02*
D03*
X640513D02*
D03*
Y305275D02*
D03*
X630513D02*
D03*
X590513D02*
D03*
X600513D02*
D03*
Y295275D02*
D03*
X590513D02*
D03*
Y275275D02*
D03*
X600513D02*
D03*
Y285275D02*
D03*
X590513D02*
D03*
X570512D02*
D03*
X580513D02*
D03*
Y275275D02*
D03*
X570512D02*
D03*
Y295275D02*
D03*
X580513D02*
D03*
Y305275D02*
D03*
X570512D02*
D03*
X550488Y345225D02*
D03*
X560488D02*
D03*
Y335225D02*
D03*
X550488D02*
D03*
X530487D02*
D03*
X540487D02*
D03*
Y345225D02*
D03*
X530487D02*
D03*
Y375225D02*
D03*
Y355225D02*
D03*
X540487D02*
D03*
Y365225D02*
D03*
X530487D02*
D03*
X550488D02*
D03*
X560488D02*
D03*
Y355225D02*
D03*
X550488D02*
D03*
Y375225D02*
D03*
X560488D02*
D03*
X850537Y225213D02*
D03*
X860538D02*
D03*
Y215212D02*
D03*
X850537D02*
D03*
Y205212D02*
D03*
X830538Y225213D02*
D03*
X840537D02*
D03*
Y215212D02*
D03*
X830538D02*
D03*
X840537Y205212D02*
D03*
X830538D02*
D03*
X810538D02*
D03*
X820537D02*
D03*
X810538Y215212D02*
D03*
X820537D02*
D03*
Y225213D02*
D03*
X810538D02*
D03*
X790538D02*
D03*
X800537D02*
D03*
Y215212D02*
D03*
X790538D02*
D03*
X800537Y205212D02*
D03*
X790538D02*
D03*
X780538D02*
D03*
Y215212D02*
D03*
Y225213D02*
D03*
X570500Y225325D02*
D03*
Y215325D02*
D03*
Y205325D02*
D03*
X580500D02*
D03*
X590500D02*
D03*
X580500Y215325D02*
D03*
X590500D02*
D03*
Y225325D02*
D03*
X580500D02*
D03*
X600500D02*
D03*
Y215325D02*
D03*
Y205325D02*
D03*
X750513Y385275D02*
D03*
X760512D02*
D03*
Y375275D02*
D03*
X750513D02*
D03*
Y395275D02*
D03*
X760512D02*
D03*
X770512Y385275D02*
D03*
X780513Y375275D02*
D03*
X770512D02*
D03*
Y395275D02*
D03*
X860513Y285275D02*
D03*
Y275275D02*
D03*
Y295275D02*
D03*
Y305275D02*
D03*
Y325275D02*
D03*
Y315275D02*
D03*
Y335275D02*
D03*
Y345275D02*
D03*
Y375275D02*
D03*
Y355275D02*
D03*
Y365275D02*
D03*
Y265275D02*
D03*
D24*
X530487Y385225D02*
D03*
X540487D02*
D03*
Y375225D02*
D03*
X530487Y395225D02*
D03*
X540487D02*
D03*
D25*
X732713Y244462D02*
D03*
X736763D02*
D03*
X740853Y244429D02*
D03*
X740987Y267536D02*
D03*
X736937D02*
D03*
X732887D02*
D03*
X705150Y244350D02*
D03*
X709200D02*
D03*
X713291Y244317D02*
D03*
X713424Y267423D02*
D03*
X709374D02*
D03*
X705324D02*
D03*
X677588Y244350D02*
D03*
X681637D02*
D03*
X685728Y244317D02*
D03*
X685862Y267423D02*
D03*
X681812D02*
D03*
X677762D02*
D03*
X650025Y244350D02*
D03*
X654075D02*
D03*
X658166Y244317D02*
D03*
X658299Y267423D02*
D03*
X654249D02*
D03*
X650199D02*
D03*
X622463Y244350D02*
D03*
X626512D02*
D03*
X630603Y244317D02*
D03*
X630737Y267423D02*
D03*
X626687D02*
D03*
X622637D02*
D03*
X825194Y399038D02*
D03*
X821144D02*
D03*
X817094D02*
D03*
X797632D02*
D03*
X793582D02*
D03*
X789532D02*
D03*
X735082D02*
D03*
X731032D02*
D03*
X726982D02*
D03*
X707519D02*
D03*
X703469D02*
D03*
X699419D02*
D03*
X679957D02*
D03*
X675907D02*
D03*
X671857D02*
D03*
X652394D02*
D03*
X648344D02*
D03*
X644294D02*
D03*
X624832D02*
D03*
X620782D02*
D03*
X616732D02*
D03*
X597269D02*
D03*
X593219D02*
D03*
X589169D02*
D03*
X569707D02*
D03*
X565657D02*
D03*
X561607D02*
D03*
X549788Y311744D02*
D03*
Y307694D02*
D03*
Y303644D02*
D03*
Y284182D02*
D03*
Y280132D02*
D03*
Y276082D02*
D03*
Y248519D02*
D03*
Y252569D02*
D03*
Y256619D02*
D03*
D26*
X743778Y237229D02*
D03*
X729716Y237117D02*
D03*
X716216D02*
D03*
X702153Y237004D02*
D03*
X688653Y237117D02*
D03*
X674591Y237004D02*
D03*
X661091Y237117D02*
D03*
X647028Y237004D02*
D03*
X633528Y237117D02*
D03*
X619466Y237004D02*
D03*
X814057Y391725D02*
D03*
X828119Y391838D02*
D03*
X786494Y391725D02*
D03*
X800557Y391838D02*
D03*
X723944Y391725D02*
D03*
X738007Y391838D02*
D03*
X696382Y391725D02*
D03*
X710444Y391838D02*
D03*
X668819Y391725D02*
D03*
X682882Y391838D02*
D03*
X641257Y391725D02*
D03*
X655319Y391838D02*
D03*
X613694Y391725D02*
D03*
X627757Y391838D02*
D03*
X586132Y391725D02*
D03*
X600194Y391838D02*
D03*
X558569Y391725D02*
D03*
X572632Y391838D02*
D03*
X557100Y300607D02*
D03*
X556987Y314669D02*
D03*
X557100Y273044D02*
D03*
X556987Y287107D02*
D03*
Y259544D02*
D03*
X557100Y245482D02*
D03*
D27*
X762271Y417351D02*
D03*
Y224437D02*
D03*
X533925D02*
D03*
D28*
Y417351D02*
D03*
D29*
X739616Y240267D02*
D03*
X733991D02*
D03*
X712053Y240154D02*
D03*
X706428D02*
D03*
X684491D02*
D03*
X678866D02*
D03*
X656928D02*
D03*
X651303D02*
D03*
X629366D02*
D03*
X623741D02*
D03*
X818332Y394875D02*
D03*
X823957D02*
D03*
X790769D02*
D03*
X796394D02*
D03*
X728219D02*
D03*
X733844D02*
D03*
X700657D02*
D03*
X706282D02*
D03*
X673094D02*
D03*
X678719D02*
D03*
X645532D02*
D03*
X651157D02*
D03*
X617969D02*
D03*
X623594D02*
D03*
X590407D02*
D03*
X596032D02*
D03*
X562844D02*
D03*
X568469D02*
D03*
X553950Y304882D02*
D03*
Y310507D02*
D03*
Y277319D02*
D03*
Y282944D02*
D03*
Y255382D02*
D03*
Y249757D02*
D03*
M02*
