M48
;Layer_Color=9474304
;FILE_FORMAT=2:5
INCH,TZ
;TYPE=PLATED
T3F00S00C0.04724
;TYPE=NON_PLATED
%
G90
G05
T03
G00X633488Y257512
M15
G01Y254363
M16
G00X647267Y257512
M15
G01Y254363
M16
G00X661047Y257512
M15
G01Y254363
M16
G00X674827Y257512
M15
G01Y254363
M16
G00X688607Y257512
M15
G01Y254363
M16
G00X702386Y257512
M15
G01Y254363
M16
G00X716166Y257512
M15
G01Y254363
M16
G00X729944Y257512
M15
G01Y254363
M16
G00X743724Y257512
M15
G01Y254363
M16
G00X619708Y257512
M15
G01Y254363
M16
G00X541461Y259477
M15
G01X538311
M16
G00X541461Y273256
M15
G01X538311
M16
G00X541461Y287036
M15
G01X538311
M16
G00X541461Y300816
M15
G01X538311
M16
G00X541461Y245697
M15
G01X538311
M16
G00X541461Y314595
M15
G01X538311
M16
G00X558728Y407402
M15
G01Y410551
M16
G00X572508Y407402
M15
G01Y410551
M16
G00X586287Y407402
M15
G01Y410551
M16
G00X600067Y407402
M15
G01Y410551
M16
G00X613846Y407402
M15
G01Y410551
M16
G00X627626Y407402
M15
G01Y410551
M16
G00X641405Y407402
M15
G01Y410551
M16
G00X655185Y407402
M15
G01Y410551
M16
G00X668964Y407402
M15
G01Y410551
M16
G00X682744Y407402
M15
G01Y410551
M16
G00X696523Y407402
M15
G01Y410551
M16
G00X710303Y407402
M15
G01Y410551
M16
G00X724083Y407402
M15
G01Y410551
M16
G00X737862Y407402
M15
G01Y410551
M16
G00X786681Y407402
M15
G01Y410551
M16
G00X800460Y407402
M15
G01Y410551
M16
G00X814240Y407402
M15
G01Y410551
M16
G00X828020Y407402
M15
G01Y410551
M16
M17
M30
