M48
;Layer_Color=9474304
;FILE_FORMAT=2:5
INCH,TZ
;TYPE=PLATED
T1F00S00C0.01968
T2F00S00C0.04200
;TYPE=NON_PLATED
T4F00S00C0.02000
T5F00S00C0.10827
%
T01
X629366Y240154
X651303
X656928
X678866
X684491
X706428
X712053
X733991Y240267
X739616
X623741Y240154
X553950Y249757
Y255382
Y277319
Y282944
Y304882
Y310507
X562844Y394875
X568469
X590407
X596032
X617969
X623594
X645532
X651157
X673094
X678719
X700657
X706282
X728219
X733844
X790769
X796394
X818332
X823957
T02
X790538Y205212
Y215212
Y225213
X800537
X810538
Y215212
Y205212
X820537
X830538
Y215212
Y225213
X840537
X850537
X860538
X870525Y225200
Y215200
X860538Y215212
X850537
Y205212
X860513Y205200
X840537Y205212
Y215212
X820537
Y225213
X820512Y235275
X810513
X800513
Y245275
X790513
Y235275
Y255275
X800513
Y265275
Y275275
X790513
Y285275
Y295275
Y305275
X800513
Y295275
Y285275
X810513
X820512
X830513
Y295275
Y305275
X840512
X850513
Y295275
Y285275
Y275275
Y265275
X840512
Y255275
Y245275
X830513
X820512
Y255275
Y265275
X810513
Y255275
Y245275
X830513Y235275
X840512
X850513
Y245275
X860513
Y235275
X870525Y235200
Y245200
Y255200
Y265275
Y275275
Y285275
Y295275
Y305275
X880525
Y295275
Y285275
X890525Y295275
Y305275
X900525
X860513
Y295275
Y285275
Y275275
Y265275
Y255275
X850513
X830513
Y265275
Y275275
X840512
Y285275
Y295275
X820512
X810513
Y305275
X820512
Y275275
X810513
X790513Y265275
X800537Y215212
Y205212
X780538
Y215212
Y225213
X780513Y235275
Y245275
Y255275
Y265275
Y275275
Y285275
X770512
X760512
X750513
X740513
Y295275
Y305275
X730513
Y295275
Y285275
Y275275
X740513
X750513
X760512
X770512
Y265275
Y255275
Y245275
X760512
Y255275
Y265275
Y295275
X750513
Y305275
X760512
X770512
Y295275
X780513
Y305275
X720512
X710512
Y295275
X720512
Y285275
Y275275
X710512
Y285275
X700513
X690513
X680513
X670512
X660512
Y295275
Y305275
X650513
Y295275
Y285275
Y275275
X660512
X670512
X680513
X690513
X700513
Y295275
X690513
X680513
X670512
Y305275
X680513
X690513
X700513
X640513
Y295275
Y285275
X630513
Y275275
X640513
X630513Y295275
Y305275
X633528Y237117
X647028Y237004
X661091Y237117
X674591Y237004
X688653Y237117
X702153Y237004
X716216Y237117
X729716
X743778Y237229
X619466Y237004
X600513Y235275
X600500Y225325
X590500
X590513Y235275
X580513
X580500Y225325
X570500
X570512Y235275
Y245275
Y255275
Y265275
X580513
Y255275
Y245275
X590513
X600513
Y255275
X590513
Y265275
X600513
Y275275
X610512
X620512
Y285275
Y295275
Y305275
X610512
Y295275
Y285275
X600513
Y295275
Y305275
X590513
Y295275
Y285275
Y275275
X580513
Y285275
X570512
Y275275
X557100Y273044
X556987Y259544
X557100Y245482
X556987Y287107
X557100Y300607
X570512Y305275
Y295275
X580513
Y305275
X580500Y215325
X570500
Y205325
X580500
X590500
Y215325
X600500
Y205325
X600513Y315275
X610512
X620512
Y325275
Y335275
Y345275
Y355275
Y365275
X610512
X600513
X590513
X580513
Y375275
X570512
Y365275
Y355275
X580513
X590513
X600513
X610512
Y345275
Y335275
Y325275
X600513
Y335275
Y345275
X590513
Y335275
Y325275
Y315275
X580513
Y325275
X570512
Y315275
X556987Y314669
X560488Y335225
Y345225
X550488
Y335225
X540487
X530487
Y345225
X540487
Y355225
X530487
Y365225
Y375225
Y385225
X540487
Y375225
Y365225
X550488
X560488
Y355225
X550488
Y375225
X560488
X558569Y391725
X572632Y391838
X586132Y391725
X600194Y391838
X613694Y391725
X610512Y375275
X600513
X590513
X620512
X580513Y345275
Y335275
X570512
Y345275
X540487Y395225
X530487
X627757Y391838
X641257Y391725
X655319Y391838
X668819Y391725
X682882Y391838
X696382Y391725
X710444Y391838
X723944Y391725
X738007Y391838
X750513Y395275
Y385275
X760512
Y375275
Y365275
X770512
Y355275
Y345275
X760512
Y335275
Y325275
X750513
X740513
Y335275
Y345275
X730513
X720512
X710512
Y335275
X720512
Y325275
Y315275
X710512
Y325275
X700513
X690513
X680513
X670512
X660512
Y335275
Y345275
X650513
X640513
Y355275
X630513
Y365275
Y375275
X640513
Y365275
X650513
X660512
X670512
Y375275
X680513
X690513
X700513
Y365275
Y355275
Y345275
Y335275
X690513
X680513
X670512
Y345275
X680513
X690513
Y355275
Y365275
X680513
Y355275
X670512
X660512
X650513
Y335275
X640513
Y325275
X630513
Y315275
X640513
X650513
X660512
X670512
X680513
X690513
X700513
X730513
X740513
X750513
X760512
X770512
Y325275
X780513
Y315275
Y335275
X770512
X750513
Y345275
Y355275
X760512
X780513
Y345275
Y365275
Y375275
X770512
Y385275
Y395275
X760512
X750513Y375275
Y365275
X740513
X730513
X720512
X710512
Y355275
X720512
X730513
X740513
Y375275
X730513
X720512
X710512
X660512
X650513
X630513Y345275
Y335275
X650513Y325275
X730513
Y335275
X790513
Y345275
X800513
X810513
Y355275
X820512
Y365275
Y375275
X810513
Y365275
X800513
X790513
Y355275
X800513
Y335275
X810513
Y325275
X820512
X830513
Y335275
Y345275
Y355275
Y365275
X840512
Y355275
X850513
Y365275
Y375275
X850525Y384925
Y394850
X860525
Y384850
X860513Y375275
Y365275
Y355275
Y345275
X850513
Y335275
Y325275
Y315275
X840512
X830513
X820512
X810513
X800513
X790513
Y325275
X800513
X820512Y335275
Y345275
X840512
Y335275
Y325275
X860513
Y315275
X870525
X880525
Y325275
Y335275
Y345275
X870525
Y335275
Y325275
X890525
X900525
Y315275
X890525
Y335275
X900525
Y345275
Y355275
Y365275
Y375275
X900537Y384925
Y394925
Y404925
Y414925
X890537
Y404925
X880538
Y414925
Y424925
X890537
X870525
Y414925
Y404925
X860525
X850525
Y414925
Y424925
X860525
Y414925
X870525Y394850
Y384850
Y375275
Y365275
X880525
X890525
Y375275
X890537Y384850
X880538
X880525Y375275
X880538Y394850
X890537
X890525Y355275
Y345275
X880525Y355275
X870525
X860513Y335275
X840512Y375275
X840525Y384925
Y394925
X828119Y391838
X814057Y391725
X800557Y391838
X786494Y391725
X790513Y375275
X800513
X830513
T04
X626512Y244350
X630603Y244317
X650025Y244350
X654075
X658166Y244317
X677588Y244350
X681637
X685728Y244317
X705150Y244350
X709200
X713291Y244317
X732713Y244462
X736763
X740853Y244429
X740987Y267536
X736937
X732887
X713424Y267423
X709374
X705324
X685862
X681812
X677762
X658299
X654249
X650199
X630737
X626687
X622637
X622463Y244350
X549788Y248519
Y252569
Y256619
Y276082
Y280132
Y284182
Y303644
Y307694
Y311744
X561607Y399038
X565657
X569707
X589169
X593219
X597269
X616732
X620782
X624832
X644294
X648344
X652394
X671857
X675907
X679957
X699419
X703469
X707519
X726982
X731032
X735082
X789532
X793582
X797632
X817094
X821144
X825194
T05
X762271Y224437
X533925
Y417351
X762271
M30
