G04*
G04 #@! TF.GenerationSoftware,Altium Limited,Altium Designer,18.0.7 (293)*
G04*
G04 Layer_Color=16711935*
%FSLAX25Y25*%
%MOIN*%
G70*
G01*
G75*
%ADD16C,0.01000*%
D16*
X525591Y405905D02*
X525563Y406899D01*
X525479Y407889D01*
X525340Y408873D01*
X525146Y409848D01*
X524898Y410810D01*
X524596Y411757D01*
X524242Y412685D01*
X523836Y413592D01*
X523380Y414475D01*
X522875Y415331D01*
X522323Y416158D01*
X521725Y416952D01*
X521084Y417711D01*
X520401Y418433D01*
X519679Y419116D01*
X518920Y419757D01*
X518126Y420354D01*
X517300Y420906D01*
X516444Y421411D01*
X515561Y421868D01*
X514654Y422273D01*
X513725Y422628D01*
X512779Y422930D01*
X511816Y423178D01*
X510842Y423372D01*
X509858Y423511D01*
X508867Y423594D01*
X507874Y423622D01*
X507874Y187402D02*
X508867Y187429D01*
X509858Y187513D01*
X510842Y187652D01*
X511816Y187846D01*
X512779Y188094D01*
X513725Y188396D01*
X514654Y188750D01*
X515561Y189156D01*
X516444Y189612D01*
X517300Y190117D01*
X518126Y190669D01*
X518920Y191267D01*
X519679Y191908D01*
X520401Y192591D01*
X521084Y193313D01*
X521725Y194072D01*
X522323Y194866D01*
X522875Y195692D01*
X523380Y196548D01*
X523836Y197431D01*
X524242Y198338D01*
X524596Y199267D01*
X524898Y200214D01*
X525146Y201176D01*
X525340Y202151D01*
X525479Y203134D01*
X525563Y204125D01*
X525591Y205118D01*
X131890Y205117D02*
X131918Y204124D01*
X132002Y203134D01*
X132141Y202150D01*
X132335Y201175D01*
X132583Y200213D01*
X132885Y199266D01*
X133239Y198338D01*
X133645Y197431D01*
X134101Y196548D01*
X134606Y195692D01*
X135158Y194865D01*
X135756Y194071D01*
X136397Y193312D01*
X137080Y192590D01*
X137802Y191907D01*
X138561Y191266D01*
X139355Y190668D01*
X140181Y190116D01*
X141037Y189611D01*
X141920Y189155D01*
X142827Y188750D01*
X143756Y188395D01*
X144702Y188093D01*
X145665Y187845D01*
X146639Y187651D01*
X147623Y187512D01*
X148614Y187429D01*
X149607Y187401D01*
X151181Y423622D02*
X150198Y423587D01*
X149220Y423482D01*
X148252Y423307D01*
X147299Y423064D01*
X146366Y422753D01*
X145457Y422377D01*
X144577Y421937D01*
X143731Y421435D01*
X142923Y420874D01*
X142157Y420256D01*
X141437Y419586D01*
X140767Y418866D01*
X140150Y418100D01*
X139589Y417292D01*
X139087Y416446D01*
X138647Y415567D01*
X138270Y414658D01*
X137960Y413725D01*
X137716Y412772D01*
X137542Y411803D01*
X137437Y410825D01*
X137402Y409842D01*
X525591Y205118D02*
X525591Y405905D01*
X131890Y205118D02*
X131890Y324606D01*
X137402Y330118D01*
Y409842D01*
X151181Y423622D02*
X507874Y423621D01*
X149606Y187401D02*
X507874Y187401D01*
M02*
