G04*
G04 #@! TF.GenerationSoftware,Altium Limited,Altium Designer,18.0.7 (293)*
G04*
G04 Layer_Color=255*
%FSLAX25Y25*%
%MOIN*%
G70*
G01*
G75*
%ADD18R,0.01063X0.02795*%
%ADD19R,0.05512X0.05118*%
%ADD20R,0.14764X0.05906*%
%ADD21R,0.02756X0.03543*%
%ADD22R,0.03543X0.02756*%
%ADD23R,0.05906X0.05118*%
%ADD24R,0.05906X0.05709*%
%ADD25R,0.05709X0.05906*%
%ADD26R,0.11417X0.21260*%
%ADD27R,0.06299X0.03937*%
%ADD28R,0.03937X0.06299*%
%ADD29R,0.01181X0.03347*%
%ADD30R,0.03347X0.01181*%
%ADD31R,0.05000X0.03150*%
%ADD32R,0.04000X0.10600*%
%ADD33R,0.40000X0.35200*%
%ADD34R,0.10600X0.04000*%
%ADD35R,0.35200X0.40000*%
%ADD36R,0.03150X0.05000*%
%ADD37R,0.06299X0.06299*%
%ADD38R,0.00984X0.01968*%
%ADD39R,0.01968X0.00984*%
%ADD40R,0.01378X0.01496*%
%ADD41R,0.06181X0.01614*%
%ADD42R,0.04764X0.02323*%
%ADD43R,0.04528X0.04134*%
%ADD44R,0.15748X0.11811*%
%ADD45R,0.03543X0.02756*%
%ADD46R,0.02756X0.03543*%
%ADD47R,0.05118X0.05906*%
%ADD48R,0.10600X0.06693*%
%ADD88C,0.04016*%
%ADD96C,0.06000*%
%ADD114O,0.08858X0.13780*%
%ADD115O,0.13780X0.08858*%
D18*
X226969Y247618D02*
D03*
X225000D02*
D03*
X223031D02*
D03*
X221063D02*
D03*
Y235846D02*
D03*
X223031D02*
D03*
X225000D02*
D03*
X226969D02*
D03*
D19*
X224016Y241732D02*
D03*
D20*
X216039Y332677D02*
D03*
X245079D02*
D03*
X376425Y276378D02*
D03*
X405465D02*
D03*
D21*
X221260Y203543D02*
D03*
X215354D02*
D03*
X221260Y224803D02*
D03*
X215354D02*
D03*
X221260Y229921D02*
D03*
X215354D02*
D03*
X276969Y362598D02*
D03*
X282874D02*
D03*
X193110D02*
D03*
X187205D02*
D03*
X276969Y367520D02*
D03*
X282874D02*
D03*
X193071Y367913D02*
D03*
X187165D02*
D03*
X237598Y356299D02*
D03*
X243504D02*
D03*
X334055D02*
D03*
X328150D02*
D03*
X237402Y361221D02*
D03*
X243307D02*
D03*
X334055Y361417D02*
D03*
X328150D02*
D03*
X200000Y352559D02*
D03*
X194095D02*
D03*
X285630Y352362D02*
D03*
X291535D02*
D03*
X200000Y357480D02*
D03*
X194095D02*
D03*
X285630Y357283D02*
D03*
X291535D02*
D03*
X313779Y326969D02*
D03*
X307874D02*
D03*
X168110Y243307D02*
D03*
X174016D02*
D03*
X168110Y270079D02*
D03*
X174016D02*
D03*
X168110Y298819D02*
D03*
X174016D02*
D03*
X403543Y338583D02*
D03*
X409449D02*
D03*
X168110Y248425D02*
D03*
X174016D02*
D03*
X168110Y303937D02*
D03*
X174016D02*
D03*
X168110Y275394D02*
D03*
X174016D02*
D03*
X413779Y338583D02*
D03*
X419685D02*
D03*
D22*
X397244Y219489D02*
D03*
Y213584D02*
D03*
X200394Y363189D02*
D03*
Y369094D02*
D03*
X290354Y368898D02*
D03*
Y362992D02*
D03*
X236221Y367323D02*
D03*
Y373228D02*
D03*
X327165Y373622D02*
D03*
Y367717D02*
D03*
X283268Y302559D02*
D03*
Y296654D02*
D03*
X347638Y280709D02*
D03*
Y286614D02*
D03*
X288386Y324213D02*
D03*
Y318307D02*
D03*
X502362Y418701D02*
D03*
Y412795D02*
D03*
X403346Y219488D02*
D03*
Y213583D02*
D03*
X508465Y418701D02*
D03*
Y412795D02*
D03*
X498425Y322047D02*
D03*
Y327953D02*
D03*
X496260Y418701D02*
D03*
Y412795D02*
D03*
X498425Y312598D02*
D03*
Y318504D02*
D03*
X483465Y312598D02*
D03*
Y318504D02*
D03*
X493504Y312598D02*
D03*
Y318504D02*
D03*
X483465Y322047D02*
D03*
Y327953D02*
D03*
X493504Y322047D02*
D03*
Y327953D02*
D03*
X488583Y312598D02*
D03*
Y318504D02*
D03*
X463386Y327952D02*
D03*
Y322046D02*
D03*
X488583Y322047D02*
D03*
Y327953D02*
D03*
X463386Y318503D02*
D03*
Y312597D02*
D03*
X478543Y312598D02*
D03*
Y318504D02*
D03*
X468504Y327952D02*
D03*
Y322046D02*
D03*
X478543Y322047D02*
D03*
Y327953D02*
D03*
X468504Y318503D02*
D03*
Y312597D02*
D03*
X473622Y327953D02*
D03*
Y322047D02*
D03*
Y318504D02*
D03*
Y312598D02*
D03*
X208071Y241142D02*
D03*
Y235236D02*
D03*
X208071Y268898D02*
D03*
Y262992D02*
D03*
X208071Y296260D02*
D03*
Y290354D02*
D03*
X409449Y213583D02*
D03*
Y219488D02*
D03*
X424408Y374212D02*
D03*
Y368307D02*
D03*
X424409Y363779D02*
D03*
Y357874D02*
D03*
X441339Y272638D02*
D03*
Y278543D02*
D03*
Y262402D02*
D03*
Y268307D02*
D03*
D23*
X477165Y239173D02*
D03*
Y246654D02*
D03*
X239370Y268110D02*
D03*
Y260630D02*
D03*
D24*
X244882Y283661D02*
D03*
Y291929D02*
D03*
X252362Y283661D02*
D03*
Y291929D02*
D03*
X231693Y260236D02*
D03*
Y268504D02*
D03*
X247244Y260433D02*
D03*
Y268701D02*
D03*
X142323Y372638D02*
D03*
Y380906D02*
D03*
X442913Y292520D02*
D03*
Y284252D02*
D03*
X335039Y367323D02*
D03*
Y375590D02*
D03*
X249410Y364173D02*
D03*
Y372441D02*
D03*
X306890Y379331D02*
D03*
Y387598D02*
D03*
X224213Y387795D02*
D03*
Y379528D02*
D03*
X229528Y300394D02*
D03*
Y308661D02*
D03*
D25*
X148622Y362205D02*
D03*
X156890D02*
D03*
X275787Y373819D02*
D03*
X284055D02*
D03*
X186024Y374410D02*
D03*
X194291D02*
D03*
D26*
X513583Y285236D02*
D03*
X474606D02*
D03*
D27*
X323031Y321654D02*
D03*
X332087Y314764D02*
D03*
Y328543D02*
D03*
D28*
X347441Y336221D02*
D03*
X340551Y327165D02*
D03*
X354331D02*
D03*
X347441Y308661D02*
D03*
X354331Y317717D02*
D03*
X340551D02*
D03*
D29*
X201378Y327362D02*
D03*
Y315945D02*
D03*
X199409D02*
D03*
Y327362D02*
D03*
X468307Y243110D02*
D03*
X466339D02*
D03*
X464370D02*
D03*
X462402D02*
D03*
X158606Y368913D02*
D03*
X156638D02*
D03*
X154669D02*
D03*
X152701D02*
D03*
X152740Y380740D02*
D03*
X154709D02*
D03*
X156677D02*
D03*
X158646D02*
D03*
D30*
X204134Y324606D02*
D03*
Y322638D02*
D03*
Y320669D02*
D03*
Y318701D02*
D03*
X471063Y245866D02*
D03*
X459646D02*
D03*
X471063Y247835D02*
D03*
X459646D02*
D03*
X149779Y371835D02*
D03*
Y373803D02*
D03*
Y375772D02*
D03*
Y377740D02*
D03*
X161606D02*
D03*
Y375772D02*
D03*
Y373803D02*
D03*
Y371835D02*
D03*
D31*
X193504Y323622D02*
D03*
Y319685D02*
D03*
D32*
X453164Y253710D02*
D03*
X446464D02*
D03*
X439764D02*
D03*
X433071Y253740D02*
D03*
X426364Y253710D02*
D03*
D33*
X439764Y217510D02*
D03*
D34*
X414153Y348017D02*
D03*
Y354717D02*
D03*
Y361417D02*
D03*
X414183Y368110D02*
D03*
X414153Y374817D02*
D03*
Y305891D02*
D03*
Y312591D02*
D03*
Y319291D02*
D03*
X414183Y325985D02*
D03*
X414153Y332691D02*
D03*
D35*
X377953Y361417D02*
D03*
Y319291D02*
D03*
D36*
X467323Y253740D02*
D03*
X463386D02*
D03*
D37*
X155709Y374803D02*
D03*
D38*
X255276Y265591D02*
D03*
X257244D02*
D03*
X259213D02*
D03*
X261181D02*
D03*
X263150D02*
D03*
Y274961D02*
D03*
X261181D02*
D03*
X259213D02*
D03*
X257244D02*
D03*
X255276D02*
D03*
X240945Y300039D02*
D03*
X242913D02*
D03*
X244882D02*
D03*
Y309409D02*
D03*
X242913D02*
D03*
X240945D02*
D03*
D39*
X263898Y268307D02*
D03*
Y270276D02*
D03*
Y272244D02*
D03*
X254528D02*
D03*
Y270276D02*
D03*
Y268307D02*
D03*
X238228Y308661D02*
D03*
Y306693D02*
D03*
Y304724D02*
D03*
Y302756D02*
D03*
Y300787D02*
D03*
X247598D02*
D03*
Y302756D02*
D03*
Y304724D02*
D03*
Y306693D02*
D03*
Y308661D02*
D03*
D40*
X260098Y295295D02*
D03*
X262067D02*
D03*
X264035D02*
D03*
X265079Y293268D02*
D03*
Y291299D02*
D03*
X264035Y289272D02*
D03*
X262067D02*
D03*
X260098D02*
D03*
X259055Y291299D02*
D03*
Y293268D02*
D03*
D41*
X297362Y355610D02*
D03*
Y358169D02*
D03*
Y360728D02*
D03*
Y363287D02*
D03*
Y365846D02*
D03*
Y368406D02*
D03*
Y370965D02*
D03*
Y373524D02*
D03*
X319961D02*
D03*
Y370965D02*
D03*
Y368406D02*
D03*
Y365846D02*
D03*
Y363287D02*
D03*
Y360728D02*
D03*
Y358169D02*
D03*
Y355610D02*
D03*
X207283Y355906D02*
D03*
Y358465D02*
D03*
Y361024D02*
D03*
Y363583D02*
D03*
Y366142D02*
D03*
Y368701D02*
D03*
Y371260D02*
D03*
Y373819D02*
D03*
X229882D02*
D03*
Y371260D02*
D03*
Y368701D02*
D03*
Y366142D02*
D03*
Y363583D02*
D03*
Y361024D02*
D03*
Y358465D02*
D03*
Y355906D02*
D03*
D42*
X199449Y290748D02*
D03*
Y298228D02*
D03*
X189567Y294488D02*
D03*
X199429Y262008D02*
D03*
Y269488D02*
D03*
X189547Y265748D02*
D03*
X199449Y235236D02*
D03*
Y242717D02*
D03*
X189567Y238976D02*
D03*
X504941Y193701D02*
D03*
Y201181D02*
D03*
X495059Y197441D02*
D03*
D43*
X399508Y242815D02*
D03*
Y248524D02*
D03*
X386319D02*
D03*
Y242815D02*
D03*
D44*
X332677Y281299D02*
D03*
X290158D02*
D03*
D45*
X397244Y204331D02*
D03*
Y209449D02*
D03*
X496260Y403543D02*
D03*
Y408661D02*
D03*
X508465Y403543D02*
D03*
Y408661D02*
D03*
X403346Y204331D02*
D03*
Y209449D02*
D03*
X502362Y403543D02*
D03*
Y408661D02*
D03*
X409449Y209449D02*
D03*
Y204331D02*
D03*
D46*
X168898Y293307D02*
D03*
X174016D02*
D03*
X168898Y264567D02*
D03*
X174016D02*
D03*
X168898Y237795D02*
D03*
X174016D02*
D03*
X168898Y280709D02*
D03*
X174016D02*
D03*
X168898Y309449D02*
D03*
X174016D02*
D03*
X168898Y253937D02*
D03*
X174016D02*
D03*
D47*
X377953Y385827D02*
D03*
X385433D02*
D03*
X230315Y277756D02*
D03*
X237795D02*
D03*
D48*
X453543Y282677D02*
D03*
Y292126D02*
D03*
X432283Y283661D02*
D03*
Y293110D02*
D03*
Y274213D02*
D03*
Y264764D02*
D03*
X257480Y311417D02*
D03*
Y301969D02*
D03*
D88*
X190354Y219193D02*
D03*
X170374Y209154D02*
D03*
X180413Y219193D02*
D03*
Y209154D02*
D03*
X170374Y219193D02*
D03*
X200394D02*
D03*
X210433Y209154D02*
D03*
Y219193D02*
D03*
X200394Y209154D02*
D03*
X220374Y219193D02*
D03*
X190354Y209154D02*
D03*
X220374D02*
D03*
X280315D02*
D03*
X250295D02*
D03*
X280315Y219193D02*
D03*
X260335Y209154D02*
D03*
X270374Y219193D02*
D03*
Y209154D02*
D03*
X260335Y219193D02*
D03*
X230315D02*
D03*
X240354Y209154D02*
D03*
Y219193D02*
D03*
X230315Y209154D02*
D03*
X250295Y219193D02*
D03*
X340256Y209252D02*
D03*
X310236Y209154D02*
D03*
X340354Y219193D02*
D03*
X320276Y209252D02*
D03*
X330315Y219193D02*
D03*
Y209252D02*
D03*
X320276Y219193D02*
D03*
X290354D02*
D03*
X300295Y209154D02*
D03*
Y219193D02*
D03*
X290354Y209154D02*
D03*
X310236Y219193D02*
D03*
X350295Y209154D02*
D03*
Y219193D02*
D03*
X360335D02*
D03*
X360335Y209154D02*
D03*
D96*
X227559Y203346D02*
D03*
X379528Y407087D02*
D03*
Y214173D02*
D03*
X151181Y407087D02*
D03*
Y214173D02*
D03*
X175394D02*
D03*
X355315D02*
D03*
D114*
X327559Y405315D02*
D03*
X313779D02*
D03*
X231102D02*
D03*
X244882D02*
D03*
X300000D02*
D03*
X286221D02*
D03*
X203543D02*
D03*
X217323D02*
D03*
X258661D02*
D03*
X272441D02*
D03*
X189764D02*
D03*
X175984D02*
D03*
X305907Y240119D02*
D03*
X292127D02*
D03*
X319686D02*
D03*
X333466D02*
D03*
X341339Y405315D02*
D03*
X355118D02*
D03*
X417717Y405512D02*
D03*
X403937D02*
D03*
X431496D02*
D03*
X445276D02*
D03*
X237008Y240158D02*
D03*
X250787D02*
D03*
X278346D02*
D03*
X264567D02*
D03*
X347244D02*
D03*
X361024D02*
D03*
D115*
X150394Y249213D02*
D03*
Y235433D02*
D03*
Y290551D02*
D03*
Y304331D02*
D03*
Y276772D02*
D03*
Y262992D02*
D03*
X506891Y253504D02*
D03*
Y239725D02*
D03*
Y212166D02*
D03*
Y225945D02*
D03*
M02*
