G04*
G04 #@! TF.GenerationSoftware,Altium Limited,Altium Designer,18.0.7 (293)*
G04*
G04 Layer_Color=8388736*
%FSLAX25Y25*%
%MOIN*%
G70*
G01*
G75*
%ADD46R,0.09843X0.03051*%
%ADD47R,0.03051X0.06299*%
%ADD48R,0.03051X0.06299*%
%ADD49R,0.03051X0.09843*%
%ADD50R,0.06299X0.03051*%
%ADD51R,0.06299X0.03051*%
%ADD52R,0.06706X0.05918*%
%ADD53R,0.06706X0.06509*%
%ADD54R,0.06509X0.06706*%
%ADD55R,0.12217X0.22060*%
%ADD56R,0.15564X0.06706*%
%ADD57R,0.07099X0.04737*%
%ADD58R,0.04737X0.07099*%
%ADD59R,0.04501X0.04343*%
%ADD60R,0.03556X0.04343*%
%ADD61R,0.04343X0.03556*%
%ADD62R,0.01981X0.04147*%
%ADD63R,0.04147X0.01981*%
%ADD64R,0.05800X0.03950*%
%ADD65R,0.04800X0.11400*%
%ADD66R,0.40800X0.36000*%
%ADD67R,0.11400X0.04800*%
%ADD68R,0.36000X0.40800*%
%ADD69R,0.03950X0.05800*%
%ADD70R,0.07874X0.07874*%
%ADD71R,0.01968X0.02953*%
%ADD72R,0.02953X0.01968*%
%ADD73R,0.02178X0.02296*%
%ADD74R,0.07126X0.02559*%
%ADD75R,0.05564X0.03123*%
%ADD76R,0.05328X0.04934*%
%ADD77R,0.16548X0.12611*%
%ADD78R,0.04343X0.03556*%
%ADD79R,0.03556X0.04343*%
%ADD80R,0.05918X0.06706*%
%ADD81R,0.11400X0.07493*%
%ADD82O,0.09658X0.14580*%
%ADD83C,0.23716*%
%ADD84C,0.04016*%
%ADD85C,0.06299*%
%ADD86O,0.14580X0.09658*%
%ADD87C,0.00787*%
%ADD88C,0.01968*%
%ADD89C,0.03937*%
D46*
X259213Y265600D02*
D03*
X259213Y274951D02*
D03*
D47*
X254538Y270276D02*
D03*
D48*
X263888Y270276D02*
D03*
D49*
X238238Y304724D02*
D03*
X247589D02*
D03*
D50*
X242913Y309400D02*
D03*
D51*
Y300049D02*
D03*
D52*
X477165Y239173D02*
D03*
Y246654D02*
D03*
X239370Y268110D02*
D03*
Y260630D02*
D03*
D53*
X244882Y283661D02*
D03*
Y291929D02*
D03*
X252362Y283661D02*
D03*
Y291929D02*
D03*
X231693Y260236D02*
D03*
Y268504D02*
D03*
X247244Y260433D02*
D03*
Y268701D02*
D03*
X142323Y372638D02*
D03*
Y380906D02*
D03*
X442913Y292520D02*
D03*
Y284252D02*
D03*
X335039Y367323D02*
D03*
Y375590D02*
D03*
X249410Y364173D02*
D03*
Y372441D02*
D03*
X306890Y379331D02*
D03*
Y387598D02*
D03*
X224213Y387795D02*
D03*
Y379528D02*
D03*
X229528Y300394D02*
D03*
Y308661D02*
D03*
D54*
X148622Y362205D02*
D03*
X156890D02*
D03*
X275787Y373819D02*
D03*
X284055D02*
D03*
X186024Y374410D02*
D03*
X194291D02*
D03*
D55*
X513583Y285039D02*
D03*
X474606D02*
D03*
D56*
X245079Y332677D02*
D03*
X216039D02*
D03*
X376425Y276378D02*
D03*
X405465D02*
D03*
D57*
X323031Y321654D02*
D03*
X332087Y314764D02*
D03*
Y328543D02*
D03*
D58*
X347441Y336221D02*
D03*
X340551Y327165D02*
D03*
X354331D02*
D03*
X347441Y308661D02*
D03*
X354331Y317717D02*
D03*
X340551D02*
D03*
D59*
X187047Y362598D02*
D03*
X193268D02*
D03*
X276811D02*
D03*
X283032D02*
D03*
X187008Y367913D02*
D03*
X193228D02*
D03*
X276811Y367520D02*
D03*
X283032D02*
D03*
D60*
X237598Y356299D02*
D03*
X243504D02*
D03*
X334055D02*
D03*
X328150D02*
D03*
X237402Y361221D02*
D03*
X243307D02*
D03*
X334055Y361417D02*
D03*
X328150D02*
D03*
X200000Y352559D02*
D03*
X194095D02*
D03*
X285630Y352362D02*
D03*
X291535D02*
D03*
X200000Y357480D02*
D03*
X194095D02*
D03*
X285630Y357283D02*
D03*
X291535D02*
D03*
X313779Y326969D02*
D03*
X307874D02*
D03*
X168110Y243307D02*
D03*
X174016D02*
D03*
X168110Y270079D02*
D03*
X174016D02*
D03*
X168110Y298819D02*
D03*
X174016D02*
D03*
X403543Y338583D02*
D03*
X409449D02*
D03*
X168110Y248425D02*
D03*
X174016D02*
D03*
X168110Y303937D02*
D03*
X174016D02*
D03*
X168110Y275394D02*
D03*
X174016D02*
D03*
X413779Y338583D02*
D03*
X419685D02*
D03*
D61*
X200394Y363189D02*
D03*
Y369094D02*
D03*
X290354Y368898D02*
D03*
Y362992D02*
D03*
X236221Y367323D02*
D03*
Y373228D02*
D03*
X327165Y373622D02*
D03*
Y367717D02*
D03*
X283268Y302559D02*
D03*
Y296654D02*
D03*
X347638Y280709D02*
D03*
Y286614D02*
D03*
X288386Y324213D02*
D03*
Y318307D02*
D03*
X502362Y418701D02*
D03*
Y412795D02*
D03*
X403346Y219488D02*
D03*
Y213583D02*
D03*
X508465Y418701D02*
D03*
Y412795D02*
D03*
X498425Y322047D02*
D03*
Y327953D02*
D03*
X496260Y418701D02*
D03*
Y412795D02*
D03*
X498425Y312598D02*
D03*
Y318504D02*
D03*
X483465Y312598D02*
D03*
Y318504D02*
D03*
X493504Y312598D02*
D03*
Y318504D02*
D03*
X483465Y322047D02*
D03*
Y327953D02*
D03*
X493504Y322047D02*
D03*
Y327953D02*
D03*
X488583Y312598D02*
D03*
Y318504D02*
D03*
X463386Y327952D02*
D03*
Y322046D02*
D03*
X488583Y322047D02*
D03*
Y327953D02*
D03*
X463386Y318503D02*
D03*
Y312597D02*
D03*
X478543Y312598D02*
D03*
Y318504D02*
D03*
X468504Y327952D02*
D03*
Y322046D02*
D03*
X478543Y322047D02*
D03*
Y327953D02*
D03*
X468504Y318503D02*
D03*
Y312597D02*
D03*
X473622Y327953D02*
D03*
Y322047D02*
D03*
Y318504D02*
D03*
Y312598D02*
D03*
X208071Y241142D02*
D03*
Y235236D02*
D03*
X208071Y268898D02*
D03*
Y262992D02*
D03*
X208071Y296260D02*
D03*
Y290354D02*
D03*
X397244Y219489D02*
D03*
Y213584D02*
D03*
X409449Y213583D02*
D03*
Y219488D02*
D03*
X424408Y374212D02*
D03*
Y368307D02*
D03*
X424409Y363779D02*
D03*
Y357874D02*
D03*
X441339Y272638D02*
D03*
Y278543D02*
D03*
Y262402D02*
D03*
Y268307D02*
D03*
D62*
X201378Y327362D02*
D03*
Y315945D02*
D03*
X199409D02*
D03*
Y327362D02*
D03*
X468307Y243110D02*
D03*
X466339D02*
D03*
X464370D02*
D03*
X462402D02*
D03*
X158606Y368913D02*
D03*
X156638D02*
D03*
X154669D02*
D03*
X152701D02*
D03*
X152740Y380740D02*
D03*
X154709D02*
D03*
X156677D02*
D03*
X158646D02*
D03*
D63*
X204134Y324606D02*
D03*
Y322638D02*
D03*
Y320669D02*
D03*
Y318701D02*
D03*
X471063Y245866D02*
D03*
X459646D02*
D03*
X471063Y247835D02*
D03*
X459646D02*
D03*
X149779Y371835D02*
D03*
Y373803D02*
D03*
Y375772D02*
D03*
Y377740D02*
D03*
X161606D02*
D03*
Y375772D02*
D03*
Y373803D02*
D03*
Y371835D02*
D03*
D64*
X193504Y323622D02*
D03*
Y319685D02*
D03*
D65*
X453164Y253710D02*
D03*
X446464D02*
D03*
X439764D02*
D03*
X433071Y253740D02*
D03*
X426364Y253710D02*
D03*
D66*
X439764Y217510D02*
D03*
D67*
X414153Y348017D02*
D03*
Y354717D02*
D03*
Y361417D02*
D03*
X414183Y368110D02*
D03*
X414153Y374817D02*
D03*
Y305891D02*
D03*
Y312591D02*
D03*
Y319291D02*
D03*
X414183Y325985D02*
D03*
X414153Y332691D02*
D03*
D68*
X377953Y361417D02*
D03*
Y319291D02*
D03*
D69*
X467323Y253740D02*
D03*
X463386D02*
D03*
D70*
X155709Y374803D02*
D03*
D71*
X255276Y265591D02*
D03*
X257244D02*
D03*
X259213D02*
D03*
X261181D02*
D03*
X263150D02*
D03*
Y274961D02*
D03*
X261181D02*
D03*
X259213D02*
D03*
X257244D02*
D03*
X255276D02*
D03*
X240945Y300039D02*
D03*
X242913D02*
D03*
X244882D02*
D03*
Y309409D02*
D03*
X242913D02*
D03*
X240945D02*
D03*
D72*
X263898Y268307D02*
D03*
Y270276D02*
D03*
Y272244D02*
D03*
X254528D02*
D03*
Y270276D02*
D03*
Y268307D02*
D03*
X238228Y308661D02*
D03*
Y306693D02*
D03*
Y304724D02*
D03*
Y302756D02*
D03*
Y300787D02*
D03*
X247598D02*
D03*
Y302756D02*
D03*
Y304724D02*
D03*
Y306693D02*
D03*
Y308661D02*
D03*
D73*
X260098Y295295D02*
D03*
X262067D02*
D03*
X264035D02*
D03*
X265079Y293268D02*
D03*
Y291299D02*
D03*
X264035Y289272D02*
D03*
X262067D02*
D03*
X260098D02*
D03*
X259055Y291299D02*
D03*
Y293268D02*
D03*
D74*
X297362Y355610D02*
D03*
Y358169D02*
D03*
Y360728D02*
D03*
Y363287D02*
D03*
Y365846D02*
D03*
Y368406D02*
D03*
Y370965D02*
D03*
Y373524D02*
D03*
X319961D02*
D03*
Y370965D02*
D03*
Y368406D02*
D03*
Y365846D02*
D03*
Y363287D02*
D03*
Y360728D02*
D03*
Y358169D02*
D03*
Y355610D02*
D03*
X207283Y355906D02*
D03*
Y358465D02*
D03*
Y361024D02*
D03*
Y363583D02*
D03*
Y366142D02*
D03*
Y368701D02*
D03*
Y371260D02*
D03*
Y373819D02*
D03*
X229882D02*
D03*
Y371260D02*
D03*
Y368701D02*
D03*
Y366142D02*
D03*
Y363583D02*
D03*
Y361024D02*
D03*
Y358465D02*
D03*
Y355906D02*
D03*
D75*
X199449Y290748D02*
D03*
Y298228D02*
D03*
X189567Y294488D02*
D03*
X199429Y262008D02*
D03*
Y269488D02*
D03*
X189547Y265748D02*
D03*
X199449Y235236D02*
D03*
Y242717D02*
D03*
X189567Y238976D02*
D03*
X504941Y193701D02*
D03*
Y201181D02*
D03*
X495059Y197441D02*
D03*
D76*
X399508Y242815D02*
D03*
Y248524D02*
D03*
X386319D02*
D03*
Y242815D02*
D03*
D77*
X332677Y281299D02*
D03*
X290158D02*
D03*
D78*
X397244Y204331D02*
D03*
Y209449D02*
D03*
X496260Y403543D02*
D03*
Y408661D02*
D03*
X508465Y403543D02*
D03*
Y408661D02*
D03*
X403346Y204331D02*
D03*
Y209449D02*
D03*
X502362Y403543D02*
D03*
Y408661D02*
D03*
X409449Y209449D02*
D03*
Y204331D02*
D03*
D79*
X168898Y293307D02*
D03*
X174016D02*
D03*
X168898Y264567D02*
D03*
X174016D02*
D03*
X168898Y237795D02*
D03*
X174016D02*
D03*
X168898Y280709D02*
D03*
X174016D02*
D03*
X168898Y309449D02*
D03*
X174016D02*
D03*
X168898Y253937D02*
D03*
X174016D02*
D03*
D80*
X377953Y385827D02*
D03*
X385433D02*
D03*
X230315Y277756D02*
D03*
X237795D02*
D03*
D81*
X453543Y282677D02*
D03*
Y292126D02*
D03*
X432283Y283661D02*
D03*
Y293110D02*
D03*
Y274213D02*
D03*
Y264764D02*
D03*
X257480Y311417D02*
D03*
Y301969D02*
D03*
D82*
X347244Y240158D02*
D03*
X361024D02*
D03*
X278346D02*
D03*
X264567D02*
D03*
X250787D02*
D03*
X237008D02*
D03*
X445276Y405512D02*
D03*
X431496D02*
D03*
X203543Y405315D02*
D03*
X217323D02*
D03*
X286221D02*
D03*
X300000D02*
D03*
X231102D02*
D03*
X244882D02*
D03*
X313779D02*
D03*
X327559D02*
D03*
X258661D02*
D03*
X272441D02*
D03*
X175984D02*
D03*
X189764D02*
D03*
X305907Y240119D02*
D03*
X292127D02*
D03*
X333466D02*
D03*
X319686D02*
D03*
X341339Y405315D02*
D03*
X355118D02*
D03*
X403937Y405512D02*
D03*
X417717D02*
D03*
D83*
X379528Y407087D02*
D03*
Y214173D02*
D03*
X151181Y407087D02*
D03*
Y214173D02*
D03*
D84*
X190354Y219193D02*
D03*
X170374Y209154D02*
D03*
X180413Y219193D02*
D03*
Y209154D02*
D03*
X170374Y219193D02*
D03*
X200394D02*
D03*
X210433Y209154D02*
D03*
Y219193D02*
D03*
X200394Y209154D02*
D03*
X220374Y219193D02*
D03*
X190354Y209154D02*
D03*
X220374D02*
D03*
X280315D02*
D03*
X250295D02*
D03*
X280315Y219193D02*
D03*
X260335Y209154D02*
D03*
X270374Y219193D02*
D03*
Y209154D02*
D03*
X260335Y219193D02*
D03*
X230315D02*
D03*
X240354Y209154D02*
D03*
Y219193D02*
D03*
X230315Y209154D02*
D03*
X250295Y219193D02*
D03*
X340256Y209252D02*
D03*
X310236Y209154D02*
D03*
X340354Y219193D02*
D03*
X320276Y209252D02*
D03*
X330315Y219193D02*
D03*
Y209252D02*
D03*
X320276Y219193D02*
D03*
X290354D02*
D03*
X300295Y209154D02*
D03*
Y219193D02*
D03*
X290354Y209154D02*
D03*
X310236Y219193D02*
D03*
X350295Y209154D02*
D03*
Y219193D02*
D03*
X360335D02*
D03*
X360335Y209154D02*
D03*
D85*
X175394Y214173D02*
D03*
X355315D02*
D03*
D86*
X506891Y253504D02*
D03*
Y239725D02*
D03*
X150394Y290551D02*
D03*
Y304331D02*
D03*
Y262992D02*
D03*
Y276772D02*
D03*
Y235433D02*
D03*
Y249213D02*
D03*
X506891Y225945D02*
D03*
Y212166D02*
D03*
D87*
X260039Y271062D02*
D03*
X470472Y243110D02*
D03*
X472440Y242913D02*
D03*
X401968Y244094D02*
D03*
X398819Y244094D02*
D03*
X179528Y279528D02*
D03*
X181890Y277756D02*
D03*
X181496Y236024D02*
D03*
Y234055D02*
D03*
X284252Y267520D02*
D03*
Y265551D02*
D03*
X270669Y266535D02*
D03*
Y264567D02*
D03*
X449803D02*
D03*
X220866Y301969D02*
D03*
X221063Y305709D02*
D03*
Y308858D02*
D03*
X257087Y291142D02*
D03*
X263976Y281299D02*
D03*
X235236Y311220D02*
D03*
X240572Y302735D02*
D03*
X198425Y326575D02*
D03*
X216535Y267717D02*
D03*
X246259Y296653D02*
D03*
X395669Y374213D02*
D03*
X176181Y202953D02*
D03*
X183661Y202756D02*
D03*
X384449Y297441D02*
D03*
X416535Y368504D02*
D03*
X418110Y369685D02*
D03*
X411811D02*
D03*
X414961Y367323D02*
D03*
X411811D02*
D03*
X413386Y368504D02*
D03*
X410236D02*
D03*
X418110Y367323D02*
D03*
X414961Y369685D02*
D03*
X408661Y367323D02*
D03*
Y369685D02*
D03*
X274410Y316339D02*
D03*
X394882Y331299D02*
D03*
Y328150D02*
D03*
X392520Y331299D02*
D03*
X392520Y325000D02*
D03*
X394882D02*
D03*
X393701Y326575D02*
D03*
X181693Y306102D02*
D03*
X179921Y307087D02*
D03*
X364961Y226181D02*
D03*
X367323Y226181D02*
D03*
X366142Y227756D02*
D03*
Y224606D02*
D03*
X429528Y282677D02*
D03*
X427953Y283858D02*
D03*
X434252Y281496D02*
D03*
X432677Y282677D02*
D03*
X434252Y283858D02*
D03*
X435827Y282677D02*
D03*
X431102Y283858D02*
D03*
X452165Y270866D02*
D03*
X449803D02*
D03*
X447441D02*
D03*
X453346Y262992D02*
D03*
X454528Y270866D02*
D03*
X456890Y267717D02*
D03*
X447441Y261417D02*
D03*
X448622Y269291D02*
D03*
Y266142D02*
D03*
X447441Y267717D02*
D03*
Y264567D02*
D03*
X449803Y267717D02*
D03*
Y261417D02*
D03*
X455709Y269291D02*
D03*
X456890Y264567D02*
D03*
X455709Y266142D02*
D03*
X454528Y264567D02*
D03*
X453346Y269291D02*
D03*
X454528Y267717D02*
D03*
X453346Y266142D02*
D03*
X450984Y269291D02*
D03*
X452165Y267717D02*
D03*
X450984Y266142D02*
D03*
X452165Y264567D02*
D03*
X450984Y262992D02*
D03*
X448622D02*
D03*
X455709D02*
D03*
X452165Y261417D02*
D03*
X456890D02*
D03*
X454528D02*
D03*
X446260Y262992D02*
D03*
X445079Y264567D02*
D03*
Y267717D02*
D03*
X446260Y266142D02*
D03*
Y269291D02*
D03*
X445079Y261417D02*
D03*
X446457Y257480D02*
D03*
X445276Y252756D02*
D03*
X446457Y251181D02*
D03*
X445276Y255906D02*
D03*
X446457Y254331D02*
D03*
X447638Y252756D02*
D03*
X445276Y249606D02*
D03*
X447638D02*
D03*
X474803Y302559D02*
D03*
X475984Y300984D02*
D03*
X477165Y302559D02*
D03*
X470472Y280118D02*
D03*
X470472Y283268D02*
D03*
X470472Y276969D02*
D03*
X468110D02*
D03*
X469291Y278543D02*
D03*
X199606Y230906D02*
D03*
X181496Y289370D02*
D03*
X179528D02*
D03*
X179527Y236024D02*
D03*
X177559D02*
D03*
X248622Y297835D02*
D03*
X393307Y202756D02*
D03*
X368504Y227756D02*
D03*
X364961Y223031D02*
D03*
X386417Y297441D02*
D03*
X427953Y281496D02*
D03*
X431102D02*
D03*
X401575Y327165D02*
D03*
X424016Y252756D02*
D03*
X425591Y253937D02*
D03*
X427165Y252756D02*
D03*
Y255118D02*
D03*
X401968Y241732D02*
D03*
X400394Y242913D02*
D03*
X398819Y241732D02*
D03*
X391732Y355118D02*
D03*
X404331Y311811D02*
D03*
X403150Y310236D02*
D03*
X404331Y308661D02*
D03*
X403150Y307087D02*
D03*
X401968Y308661D02*
D03*
X403150Y313386D02*
D03*
X401968Y311811D02*
D03*
X312992Y320276D02*
D03*
X288386Y324606D02*
D03*
X321457Y325984D02*
D03*
X188583Y273819D02*
D03*
X190793Y246659D02*
D03*
X197485Y247052D02*
D03*
X196850Y276378D02*
D03*
X200984Y300590D02*
D03*
X281102Y305905D02*
D03*
X274410Y304331D02*
D03*
X272047Y306299D02*
D03*
X281102Y328150D02*
D03*
X276772Y318504D02*
D03*
X283464Y326574D02*
D03*
X312992Y293504D02*
D03*
X183465Y234055D02*
D03*
X269685Y294488D02*
D03*
X272047Y292126D02*
D03*
X301575Y315354D02*
D03*
X261024Y322047D02*
D03*
X266732Y324410D02*
D03*
X283268Y302559D02*
D03*
X262598Y291732D02*
D03*
X461614Y248425D02*
D03*
X379724Y297441D02*
D03*
X381693D02*
D03*
X390945Y313386D02*
D03*
Y307087D02*
D03*
Y310236D02*
D03*
X393307Y374213D02*
D03*
X445079Y383071D02*
D03*
X442520Y385433D02*
D03*
X442913Y380315D02*
D03*
X185433Y234055D02*
D03*
X175787Y364173D02*
D03*
X177165Y340550D02*
D03*
X186614Y332874D02*
D03*
X215354Y322638D02*
D03*
X208465Y319094D02*
D03*
X208465Y317126D02*
D03*
X217717Y322638D02*
D03*
X219094Y321063D02*
D03*
X216535D02*
D03*
X463189Y247244D02*
D03*
X424016Y255118D02*
D03*
X391732Y352756D02*
D03*
X393307Y353937D02*
D03*
Y356299D02*
D03*
X394882Y355118D02*
D03*
Y352756D02*
D03*
X399213Y356693D02*
D03*
X400394Y355118D02*
D03*
X401575Y356693D02*
D03*
X402756Y355118D02*
D03*
X401575Y353543D02*
D03*
X399213D02*
D03*
X395669Y313386D02*
D03*
X393307D02*
D03*
Y307087D02*
D03*
X392126Y311811D02*
D03*
Y308661D02*
D03*
X393307Y310236D02*
D03*
X394488Y311811D02*
D03*
X395669Y310236D02*
D03*
X394488Y308661D02*
D03*
X395669Y307087D02*
D03*
X394488Y305512D02*
D03*
X392126D02*
D03*
X405512Y313386D02*
D03*
X400787D02*
D03*
Y310236D02*
D03*
Y307087D02*
D03*
X405512Y310236D02*
D03*
Y307087D02*
D03*
X468110Y283268D02*
D03*
X469291Y281693D02*
D03*
X468110Y280118D02*
D03*
X471654Y281693D02*
D03*
Y278543D02*
D03*
X402362Y369685D02*
D03*
X403937Y368504D02*
D03*
X395669Y371063D02*
D03*
X393307Y367913D02*
D03*
X393307Y371063D02*
D03*
X394488Y369488D02*
D03*
Y372638D02*
D03*
X395669Y367913D02*
D03*
X405512Y369685D02*
D03*
X404724Y327165D02*
D03*
X440945Y258661D02*
D03*
X438583D02*
D03*
X440945Y252362D02*
D03*
X438583Y249213D02*
D03*
X439764Y257087D02*
D03*
Y253937D02*
D03*
X438583Y255512D02*
D03*
Y252362D02*
D03*
X440945Y255512D02*
D03*
Y249213D02*
D03*
X439764Y250787D02*
D03*
X417323Y324803D02*
D03*
Y327165D02*
D03*
X414173Y324803D02*
D03*
X412598Y325984D02*
D03*
X411024Y324803D02*
D03*
X409449Y325984D02*
D03*
X406299D02*
D03*
X404724Y324803D02*
D03*
X401575D02*
D03*
X393701Y329724D02*
D03*
X392520Y328150D02*
D03*
X403150Y325984D02*
D03*
X411024Y327165D02*
D03*
X415748Y325984D02*
D03*
X414173Y327165D02*
D03*
X447638Y255906D02*
D03*
X173228Y370866D02*
D03*
X212992Y322638D02*
D03*
X214173Y321063D02*
D03*
X217717Y319488D02*
D03*
X215354D02*
D03*
X212992D02*
D03*
X214173Y317913D02*
D03*
X216535D02*
D03*
X217322Y295275D02*
D03*
X216707Y242126D02*
D03*
X242913Y303543D02*
D03*
X208268Y294488D02*
D03*
X208465Y267126D02*
D03*
X207677Y239173D02*
D03*
X199803Y238187D02*
D03*
X177559Y234055D02*
D03*
X179528D02*
D03*
X181496Y250787D02*
D03*
X179528Y251575D02*
D03*
X183465Y289370D02*
D03*
X185433D02*
D03*
X177559D02*
D03*
Y291339D02*
D03*
X179528D02*
D03*
X181496D02*
D03*
X183465D02*
D03*
Y236024D02*
D03*
X183268Y263779D02*
D03*
X181299D02*
D03*
X179331D02*
D03*
X177362D02*
D03*
X179331Y261811D02*
D03*
X177362D02*
D03*
X185236D02*
D03*
X183268D02*
D03*
X181299D02*
D03*
X201029Y245478D02*
D03*
X200989Y273234D02*
D03*
X199803Y266140D02*
D03*
Y293699D02*
D03*
D88*
X255315Y261417D02*
D03*
X486221Y246850D02*
D03*
X416535Y203543D02*
D03*
X226575Y396457D02*
D03*
X234252Y393110D02*
D03*
X209646Y395669D02*
D03*
X217913Y393109D02*
D03*
X198425Y391339D02*
D03*
X194476Y385249D02*
D03*
X301575Y392717D02*
D03*
X500197Y190945D02*
D03*
X337598Y310433D02*
D03*
X353739Y310432D02*
D03*
X338189Y303937D02*
D03*
X512598Y418898D02*
D03*
X244882Y395472D02*
D03*
X296063Y395276D02*
D03*
X313779Y395472D02*
D03*
X167913Y388779D02*
D03*
X239173Y270472D02*
D03*
X228346Y282874D02*
D03*
X226378Y293701D02*
D03*
X234449Y298819D02*
D03*
X230512Y252362D02*
D03*
X285433Y227755D02*
D03*
X243110Y250984D02*
D03*
X444685Y313779D02*
D03*
X445669Y318701D02*
D03*
X437598Y319685D02*
D03*
X521062Y262204D02*
D03*
X280118Y225394D02*
D03*
X412992Y237795D02*
D03*
X418307Y246654D02*
D03*
X406298Y229330D02*
D03*
X511417Y193307D02*
D03*
X517913Y206496D02*
D03*
X451378Y292323D02*
D03*
X455512D02*
D03*
X493504Y395472D02*
D03*
X444094Y327165D02*
D03*
X446653Y323228D02*
D03*
X216535Y352362D02*
D03*
X189764Y346850D02*
D03*
X277953Y348819D02*
D03*
X314961Y229331D02*
D03*
X506890Y395079D02*
D03*
X341535Y420275D02*
D03*
X288779Y340945D02*
D03*
X365747Y393109D02*
D03*
X365158Y386614D02*
D03*
X371654Y384842D02*
D03*
X309055Y293110D02*
D03*
Y297244D02*
D03*
X513583Y387598D02*
D03*
X388779Y235826D02*
D03*
X384055Y236221D02*
D03*
X392520Y257480D02*
D03*
X284646Y202559D02*
D03*
X362402Y295079D02*
D03*
X442717Y332677D02*
D03*
X493504Y387402D02*
D03*
X367913Y366339D02*
D03*
X487008Y380315D02*
D03*
X508465Y387598D02*
D03*
X322047Y341339D02*
D03*
X345276Y225787D02*
D03*
X339180Y232700D02*
D03*
X357677Y225197D02*
D03*
X327362Y223819D02*
D03*
X321850Y288189D02*
D03*
X304331Y341535D02*
D03*
X366929Y257874D02*
D03*
X350787Y258070D02*
D03*
X343307Y258071D02*
D03*
X347835Y359842D02*
D03*
X343109Y364566D02*
D03*
X303740Y295472D02*
D03*
X280118Y292519D02*
D03*
X295693Y258834D02*
D03*
X289961Y266535D02*
D03*
X513583Y320472D02*
D03*
X245472Y201378D02*
D03*
X265551Y207480D02*
D03*
X397441Y223228D02*
D03*
X266142Y309842D02*
D03*
X255906Y325394D02*
D03*
X463386Y303740D02*
D03*
X267323Y335630D02*
D03*
X259646Y329921D02*
D03*
X244291Y322244D02*
D03*
X270669Y339173D02*
D03*
X448818Y311613D02*
D03*
X388189Y281299D02*
D03*
X392323Y277756D02*
D03*
X473425Y387402D02*
D03*
X483465D02*
D03*
X478543D02*
D03*
X442126Y362598D02*
D03*
X503150Y327953D02*
D03*
X161221Y341535D02*
D03*
X164961Y346654D02*
D03*
X179527Y385039D02*
D03*
X195472Y219291D02*
D03*
X185433Y228149D02*
D03*
X257480Y345079D02*
D03*
X249606Y335630D02*
D03*
X478543Y320276D02*
D03*
X483661D02*
D03*
X488583D02*
D03*
X493504D02*
D03*
X498425D02*
D03*
X294291Y280709D02*
D03*
X275787Y339173D02*
D03*
X272047Y344291D02*
D03*
X337008Y350000D02*
D03*
X328740Y349999D02*
D03*
X292323Y345276D02*
D03*
X286023Y390747D02*
D03*
X322047Y391141D02*
D03*
X342913Y390747D02*
D03*
X332677Y394094D02*
D03*
X311417Y349999D02*
D03*
X237992Y349803D02*
D03*
X212007Y341732D02*
D03*
X186208Y357822D02*
D03*
X229921Y341929D02*
D03*
X200394D02*
D03*
X180709Y349410D02*
D03*
X242323Y341732D02*
D03*
X329921Y251969D02*
D03*
X174409Y354330D02*
D03*
X473621Y320276D02*
D03*
X468504Y320275D02*
D03*
X463385Y320275D02*
D03*
X179133Y354330D02*
D03*
X274016Y387008D02*
D03*
X279134Y395276D02*
D03*
X272047Y379527D02*
D03*
X257480Y364173D02*
D03*
X194094Y393700D02*
D03*
X185826Y385432D02*
D03*
X251575Y391339D02*
D03*
D89*
X483465Y232874D02*
D03*
M02*
