G04*
G04 #@! TF.GenerationSoftware,Altium Limited,Altium Designer,18.0.7 (293)*
G04*
G04 Layer_Color=128*
%FSLAX25Y25*%
%MOIN*%
G70*
G01*
G75*
%ADD21R,0.02756X0.03543*%
%ADD22R,0.03543X0.02756*%
%ADD23R,0.05906X0.05118*%
%ADD24R,0.05906X0.05709*%
%ADD25R,0.05709X0.05906*%
%ADD42R,0.04764X0.02323*%
%ADD47R,0.05118X0.05906*%
%ADD119R,0.04016X0.07008*%
%ADD120R,0.06693X0.12598*%
%ADD121R,0.12598X0.06693*%
%ADD122R,0.06693X0.10600*%
%ADD123R,0.03543X0.07874*%
%ADD124R,0.07874X0.03543*%
%ADD125R,0.19685X0.19685*%
%ADD126R,0.23976X0.22165*%
%ADD127R,0.11142X0.03819*%
%ADD128R,0.02323X0.04764*%
G36*
X495201Y343765D02*
X482737D01*
Y356225D01*
X495201D01*
Y343765D01*
D02*
G37*
G36*
X496654Y293012D02*
X490906D01*
Y298169D01*
X496654D01*
Y293012D01*
D02*
G37*
G36*
X488661D02*
X482913D01*
Y298169D01*
X488661D01*
Y293012D01*
D02*
G37*
G36*
X480669D02*
X474921D01*
Y298169D01*
X480669D01*
Y293012D01*
D02*
G37*
G36*
X496654Y285610D02*
X490906D01*
Y290768D01*
X496654D01*
Y285610D01*
D02*
G37*
G36*
X488661D02*
X482913D01*
Y290768D01*
X488661D01*
Y285610D01*
D02*
G37*
G36*
X480669D02*
X474921D01*
Y290768D01*
X480669D01*
Y285610D01*
D02*
G37*
G36*
X496654Y278209D02*
X490906D01*
Y283366D01*
X496654D01*
Y278209D01*
D02*
G37*
G36*
X488661D02*
X482913D01*
Y283366D01*
X488661D01*
Y278209D01*
D02*
G37*
G36*
X480669D02*
X474921D01*
Y283366D01*
X480669D01*
Y278209D01*
D02*
G37*
D21*
X411221Y217913D02*
D03*
X417126D02*
D03*
X411221Y251969D02*
D03*
X417126D02*
D03*
X437992Y344488D02*
D03*
X432087D02*
D03*
X413189Y231496D02*
D03*
X419095D02*
D03*
X514961Y201772D02*
D03*
X509055D02*
D03*
X432087Y339567D02*
D03*
X437992D02*
D03*
X237205Y252756D02*
D03*
X243110D02*
D03*
X256890D02*
D03*
X250984D02*
D03*
X264764D02*
D03*
X270669D02*
D03*
X283268D02*
D03*
X277362D02*
D03*
X361181Y251575D02*
D03*
X367087D02*
D03*
X353307D02*
D03*
X347402D02*
D03*
X419291Y195472D02*
D03*
X413386D02*
D03*
X432087Y324803D02*
D03*
X437992D02*
D03*
X508465Y313189D02*
D03*
X514370D02*
D03*
X183268Y235236D02*
D03*
X189173D02*
D03*
X183268Y262795D02*
D03*
X189173D02*
D03*
X183465Y290551D02*
D03*
X189370D02*
D03*
X189173Y242717D02*
D03*
X183268D02*
D03*
X189370Y270472D02*
D03*
X183465D02*
D03*
X189370Y298031D02*
D03*
X183465D02*
D03*
X183268Y249016D02*
D03*
X189173D02*
D03*
X183465Y276969D02*
D03*
X189370D02*
D03*
X183465Y304724D02*
D03*
X189370D02*
D03*
X189173Y256496D02*
D03*
X183268D02*
D03*
X189370Y284252D02*
D03*
X183465D02*
D03*
X189370Y312205D02*
D03*
X183465D02*
D03*
X309449Y251969D02*
D03*
X315354D02*
D03*
X432087Y349410D02*
D03*
X437992D02*
D03*
X437992Y378740D02*
D03*
X432087D02*
D03*
X382480Y382874D02*
D03*
X376575D02*
D03*
X437992Y334646D02*
D03*
X432087D02*
D03*
X376575Y387795D02*
D03*
X382480D02*
D03*
X437992Y373031D02*
D03*
X432087D02*
D03*
X382480Y377953D02*
D03*
X376575D02*
D03*
Y373031D02*
D03*
X382480D02*
D03*
X437992Y354331D02*
D03*
X432087D02*
D03*
X437992Y359252D02*
D03*
X432087D02*
D03*
X503150Y395472D02*
D03*
X497244D02*
D03*
X357087Y361024D02*
D03*
X362992D02*
D03*
X432087Y329724D02*
D03*
X437992D02*
D03*
X432087Y366339D02*
D03*
X437992D02*
D03*
D22*
X404921Y228937D02*
D03*
Y234842D02*
D03*
X399803Y229134D02*
D03*
Y235039D02*
D03*
X473622Y314567D02*
D03*
Y308661D02*
D03*
X468504D02*
D03*
Y314567D02*
D03*
X463583D02*
D03*
Y308661D02*
D03*
X498425Y308622D02*
D03*
Y314528D02*
D03*
X483465Y314567D02*
D03*
Y308661D02*
D03*
X478543D02*
D03*
Y314567D02*
D03*
X493504D02*
D03*
Y308661D02*
D03*
X488583D02*
D03*
Y314567D02*
D03*
X463189Y405315D02*
D03*
Y399410D02*
D03*
X468504D02*
D03*
Y405315D02*
D03*
X261024Y267717D02*
D03*
Y261811D02*
D03*
X246850Y261614D02*
D03*
Y267520D02*
D03*
X334842Y262795D02*
D03*
Y256890D02*
D03*
X300394Y258858D02*
D03*
Y252953D02*
D03*
X294685Y258858D02*
D03*
Y252953D02*
D03*
X289764Y258858D02*
D03*
Y252953D02*
D03*
X160433Y245276D02*
D03*
Y239370D02*
D03*
Y273031D02*
D03*
Y267126D02*
D03*
Y300984D02*
D03*
Y295079D02*
D03*
X213189Y236614D02*
D03*
Y242520D02*
D03*
Y264567D02*
D03*
Y270472D02*
D03*
X213189Y292323D02*
D03*
Y298228D02*
D03*
Y250590D02*
D03*
Y256496D02*
D03*
X213189Y278346D02*
D03*
Y284252D02*
D03*
X213189Y306496D02*
D03*
Y312402D02*
D03*
X453543Y312598D02*
D03*
Y306693D02*
D03*
X458465Y312598D02*
D03*
Y306693D02*
D03*
X393307Y245669D02*
D03*
Y251575D02*
D03*
D23*
X181693Y328346D02*
D03*
Y335827D02*
D03*
X514567Y273425D02*
D03*
Y265945D02*
D03*
D24*
X227756Y245669D02*
D03*
Y237402D02*
D03*
X493701Y217717D02*
D03*
Y209449D02*
D03*
X277953Y379527D02*
D03*
Y387795D02*
D03*
X191929Y387795D02*
D03*
Y379528D02*
D03*
X296063Y379528D02*
D03*
Y387795D02*
D03*
X209646Y387795D02*
D03*
Y379528D02*
D03*
X313779Y379527D02*
D03*
Y387795D02*
D03*
X227362Y387795D02*
D03*
Y379528D02*
D03*
X331102Y379527D02*
D03*
Y387795D02*
D03*
X245079Y387795D02*
D03*
Y379528D02*
D03*
X286221Y379528D02*
D03*
Y387795D02*
D03*
X200197Y387795D02*
D03*
Y379528D02*
D03*
X304331Y379528D02*
D03*
Y387795D02*
D03*
X217913Y387795D02*
D03*
Y379528D02*
D03*
X322047Y379527D02*
D03*
Y387795D02*
D03*
X235630Y387795D02*
D03*
Y379528D02*
D03*
X339370Y379527D02*
D03*
Y387795D02*
D03*
X253346Y387795D02*
D03*
Y379528D02*
D03*
X286221Y362795D02*
D03*
Y371063D02*
D03*
X200197Y371063D02*
D03*
Y362795D02*
D03*
X304331Y362795D02*
D03*
Y371063D02*
D03*
X217913Y371063D02*
D03*
Y362795D02*
D03*
X322047Y362795D02*
D03*
Y371063D02*
D03*
X235630Y371063D02*
D03*
Y362795D02*
D03*
X339370Y362795D02*
D03*
Y371063D02*
D03*
X253346Y371063D02*
D03*
Y362795D02*
D03*
X277953Y371063D02*
D03*
Y362795D02*
D03*
X191929Y362795D02*
D03*
Y371063D02*
D03*
X296063Y371063D02*
D03*
Y362795D02*
D03*
X209646Y362795D02*
D03*
Y371063D02*
D03*
X313779Y371063D02*
D03*
Y362795D02*
D03*
X227362Y362795D02*
D03*
Y371063D02*
D03*
X331102Y371063D02*
D03*
Y362795D02*
D03*
X245079Y362795D02*
D03*
Y371063D02*
D03*
X493504Y233858D02*
D03*
Y225590D02*
D03*
X467323Y217913D02*
D03*
Y209646D02*
D03*
X467520Y225590D02*
D03*
Y233858D02*
D03*
D25*
X318110Y334646D02*
D03*
X326378D02*
D03*
X240158Y334449D02*
D03*
X231890D02*
D03*
X196457D02*
D03*
X204724D02*
D03*
X300394Y334646D02*
D03*
X308661D02*
D03*
X222441Y334449D02*
D03*
X214173D02*
D03*
X277953Y354134D02*
D03*
X286221D02*
D03*
X200197Y354134D02*
D03*
X191929D02*
D03*
X296063Y354134D02*
D03*
X304331D02*
D03*
X217913Y354134D02*
D03*
X209646D02*
D03*
X313779Y354134D02*
D03*
X322047D02*
D03*
X235630Y354134D02*
D03*
X227362D02*
D03*
X331102Y354134D02*
D03*
X339370D02*
D03*
X253346Y354134D02*
D03*
X245079D02*
D03*
X402362Y332874D02*
D03*
X394094D02*
D03*
X395866Y374016D02*
D03*
X404134D02*
D03*
X290945Y334646D02*
D03*
X282677D02*
D03*
X411614Y245866D02*
D03*
X419882D02*
D03*
X410827Y224606D02*
D03*
X419095D02*
D03*
X436221Y218110D02*
D03*
X427953D02*
D03*
X419488Y237992D02*
D03*
X411221D02*
D03*
X486024Y225590D02*
D03*
X477756D02*
D03*
X277953Y345276D02*
D03*
X286221D02*
D03*
X304331Y345669D02*
D03*
X296063D02*
D03*
X313779D02*
D03*
X322047D02*
D03*
X339370D02*
D03*
X331102D02*
D03*
X191929Y345472D02*
D03*
X200197D02*
D03*
X217913D02*
D03*
X209646D02*
D03*
X227362D02*
D03*
X235630D02*
D03*
X253346D02*
D03*
X245079D02*
D03*
D42*
X450394Y209055D02*
D03*
Y216535D02*
D03*
X460276Y212795D02*
D03*
X476949Y209646D02*
D03*
Y217126D02*
D03*
X486831Y213386D02*
D03*
X394114Y235827D02*
D03*
Y228346D02*
D03*
X384232Y232087D02*
D03*
X434469Y264764D02*
D03*
Y257283D02*
D03*
X424587Y261024D02*
D03*
X364587Y374016D02*
D03*
Y366535D02*
D03*
X354705Y370276D02*
D03*
X204921Y312205D02*
D03*
Y304724D02*
D03*
X195039Y308465D02*
D03*
X204921Y284252D02*
D03*
Y276772D02*
D03*
X195039Y280512D02*
D03*
X204961Y256496D02*
D03*
Y249016D02*
D03*
X195079Y252756D02*
D03*
X204744Y298228D02*
D03*
Y290748D02*
D03*
X194862Y294488D02*
D03*
X204921Y270472D02*
D03*
Y262992D02*
D03*
X195039Y266732D02*
D03*
X204961Y242717D02*
D03*
Y235236D02*
D03*
X195079Y238976D02*
D03*
X411988Y264961D02*
D03*
Y272441D02*
D03*
X421870Y268701D02*
D03*
X178169Y312205D02*
D03*
Y304724D02*
D03*
X168287Y308465D02*
D03*
X178169Y284252D02*
D03*
Y276772D02*
D03*
X168287Y280512D02*
D03*
X178169Y256496D02*
D03*
Y249016D02*
D03*
X168287Y252756D02*
D03*
X178150Y298031D02*
D03*
Y290551D02*
D03*
X168268Y294291D02*
D03*
X178169Y270472D02*
D03*
Y262992D02*
D03*
X168287Y266732D02*
D03*
X178169Y242717D02*
D03*
Y235236D02*
D03*
X168287Y238976D02*
D03*
D47*
X461221Y295472D02*
D03*
X453740D02*
D03*
X490354Y395669D02*
D03*
X482874D02*
D03*
X400984Y353740D02*
D03*
X393504D02*
D03*
X461221Y286614D02*
D03*
X453740D02*
D03*
X512402Y303346D02*
D03*
X519882D02*
D03*
D119*
X260354Y225673D02*
D03*
X170354D02*
D03*
X180354D02*
D03*
X190354D02*
D03*
X170354Y202673D02*
D03*
X180354D02*
D03*
X200354Y225673D02*
D03*
X210354D02*
D03*
X220354D02*
D03*
X230354D02*
D03*
X240354D02*
D03*
X250354D02*
D03*
X190354Y202673D02*
D03*
X200354D02*
D03*
X210354D02*
D03*
X220354D02*
D03*
X230354D02*
D03*
X240354D02*
D03*
X250354D02*
D03*
X260354D02*
D03*
X270354Y225673D02*
D03*
X280354D02*
D03*
X290354D02*
D03*
X300354D02*
D03*
X310354D02*
D03*
X320354D02*
D03*
X330354D02*
D03*
X340354D02*
D03*
X350354D02*
D03*
X360354D02*
D03*
X270354Y202673D02*
D03*
X280354D02*
D03*
X290354D02*
D03*
X300354D02*
D03*
X310354D02*
D03*
X320354D02*
D03*
X330354D02*
D03*
X340354D02*
D03*
X350354D02*
D03*
X360354D02*
D03*
D120*
X490256Y263386D02*
D03*
X464961D02*
D03*
D121*
X449803Y229331D02*
D03*
Y254626D02*
D03*
D122*
X362008Y268307D02*
D03*
X371457D02*
D03*
X403937Y363779D02*
D03*
X394488D02*
D03*
X402953Y309449D02*
D03*
X393504D02*
D03*
X402953Y321260D02*
D03*
X393504D02*
D03*
D123*
X518504Y387402D02*
D03*
X513504D02*
D03*
X508504D02*
D03*
X503504D02*
D03*
X498504D02*
D03*
X493504D02*
D03*
X488504D02*
D03*
X483504D02*
D03*
X478504D02*
D03*
X473504D02*
D03*
X468504D02*
D03*
X463504D02*
D03*
X458504D02*
D03*
X453504D02*
D03*
Y320472D02*
D03*
X458504D02*
D03*
X463504D02*
D03*
X468504D02*
D03*
X473504D02*
D03*
X478504D02*
D03*
X483504D02*
D03*
X488504D02*
D03*
X493504D02*
D03*
X498504D02*
D03*
X503504D02*
D03*
X508504D02*
D03*
X513504D02*
D03*
X518504D02*
D03*
D124*
X449567Y376437D02*
D03*
Y371437D02*
D03*
Y366437D02*
D03*
Y361437D02*
D03*
Y356437D02*
D03*
Y351437D02*
D03*
Y346437D02*
D03*
Y341437D02*
D03*
Y336437D02*
D03*
Y331437D02*
D03*
D125*
X488976Y350000D02*
D03*
D126*
X485787Y288189D02*
D03*
D127*
X511969Y279173D02*
D03*
Y297205D02*
D03*
D128*
X329528Y259055D02*
D03*
X322047D02*
D03*
X325787Y268937D02*
D03*
X315945Y259035D02*
D03*
X308465D02*
D03*
X312205Y268917D02*
D03*
X507283Y262972D02*
D03*
X499803D02*
D03*
X503543Y272854D02*
D03*
X430118Y228327D02*
D03*
X433858Y238209D02*
D03*
X426378D02*
D03*
M02*
