M48
;Layer_Color=9474304
;FILE_FORMAT=2:5
INCH,TZ
;TYPE=PLATED
T1F00S00C0.00787
T2F00S00C0.01968
T3F00S00C0.03937
T4F00S00C0.04724
;TYPE=NON_PLATED
T5F00S00C0.04016
T6F00S00C0.06299
T7F00S00C0.10827
%
T01
X470472Y243110
X472440Y242913
X470472Y276969
X469291Y278543
X471654
X470472Y280118
X469291Y281693
X471654
X470472Y283268
X475984Y300984
X477165Y302559
X474803
X468110Y283268
X468110Y280118
Y276969
X454528Y270866
X452165
X449803
X447441
X448622Y269291
X446260
X447441Y267717
X445079
X446260Y266142
X448622
X450984
X453346
X455709
X454528Y267717
X452165
X449803
X450984Y269291
X453346
X455709
X456890Y267717
Y264567
X454528
X452165
X449803
X447441
X445079
X446260Y262992
X448622
X450984
X453346
X455709
X454528Y261417
X452165
X449803
X447441
X445079
X446457Y257480
X445276Y255906
X447638
X446457Y254331
X445276Y252756
X447638
X446457Y251181
X445276Y249606
X447638
X440945Y249213
X438583
X439764Y250787
X438583Y252362
X440945
X439764Y253937
X438583Y255512
X440945
X439764Y257087
X438583Y258661
X440945
X427165Y255118
Y252756
X425591Y253937
X424016Y252756
Y255118
X427953Y281496
Y283858
X429528Y282677
X431102Y283858
Y281496
X432677Y282677
X434252Y281496
Y283858
X435827Y282677
X456890Y261417
X461614Y248425
X463189Y247244
X401968Y244094
Y241732
X400394Y242913
X398819Y241732
Y244094
X368504Y227756
X366142Y227756
X364961Y226181
X367323Y226181
X366142Y224606
X364961Y223031
X393307Y202756
X386417Y297441
X384449
X381693
X379724
X392126Y305512
X394488
X393307Y307087
X395669
X394488Y308661
X392126
X390945Y310236
X393307
X395669
X394488Y311811
X392126
X390945Y307087
X400787
X403150Y307087
X405512Y307087
X404331Y308661
X401968
X400787Y310236
X403150Y310236
X405512Y310236
X404331Y311811
X401968
X312992Y293504
X283268Y302559
X281102Y305905
X274410Y304331
X272047Y306299
X269685Y294488
X272047Y292126
X262598Y291732
X257087Y291142
X248622Y297835
X246259Y296653
X242913Y303543
X240572Y302735
X235236Y311220
X221063Y308858
Y305709
X220866Y301969
X217322Y295275
X208268Y294488
X199803Y293699
X200984Y300590
X181693Y306102
X179921Y307087
X179528Y291339
X177559
Y289370
X179528Y289370
X181496
Y291339
X183465
Y289370
X185433
X181890Y277756
X179528Y279528
X188583Y273819
X196850Y276378
X200989Y273234
X199803Y266140
X208465Y267126
X216535Y267717
X216707Y242126
X207677Y239173
X199803Y238187
X199606Y230906
X201029Y245478
X197485Y247052
X190793Y246659
X181496Y250787
X179528Y251575
X179331Y261811
Y263779
X181299
Y261811
X183268
Y263779
X185236Y261811
X177362
Y263779
X177559Y236024
X177559Y234055
X179528
X179527Y236024
X181496Y236024
Y234055
X183465Y234055
X185433Y234055
X183465Y236024
X183661Y202756
X176181Y202953
X260039Y271062
X263976Y281299
X270669Y266535
Y264567
X284252Y265551
Y267520
X276772Y318504
X274410Y316339
X266732Y324410
X261024Y322047
X281102Y328150
X283464Y326574
X288386Y324606
X301575Y315354
X216535Y317913
X214173
X215354Y319488
X212992
X214173Y321063
X216535Y321063
X219094
X217717Y319488
Y322638
X215354
X212992
X208465Y319094
X208465Y317126
X198425Y326575
X186614Y332874
X177165Y340550
X175787Y364173
X173228Y370866
X312992Y320276
X321457Y325984
X392520Y325000
X394882
X393701Y326575
X392520Y328150
X394882
X393701Y329724
X392520Y331299
X394882
X401575Y327165
Y324803
X403150Y325984
X404724Y327165
Y324803
X406299Y325984
X409449
X411024Y324803
Y327165
X412598Y325984
X414173Y324803
Y327165
X415748Y325984
X417323Y324803
Y327165
X405512Y313386
X403150Y313386
X400787Y313386
X395669
X393307
X390945
X391732Y352756
Y355118
X393307Y353937
Y356299
X394882Y355118
Y352756
X399213Y353543
X401575
X400394Y355118
X402756
X401575Y356693
X399213
X395669Y367913
X393307
X394488Y369488
X393307Y371063
X395669
X394488Y372638
X393307Y374213
X395669
X402362Y369685
X403937Y368504
X405512Y369685
X408661Y369685
Y367323
X410236Y368504
X411811Y367323
Y369685
X413386Y368504
X414961Y367323
Y369685
X416535Y368504
X418110Y367323
Y369685
X442913Y380315
X445079Y383071
X442520Y385433
T02
X500197Y190945
X511417Y193307
X517913Y206496
X521062Y262204
X486221Y246850
X418307Y246654
X412992Y237795
X406298Y229330
X397441Y223228
X388779Y235826
X384055Y236221
X392520Y257480
X392323Y277756
X388189Y281299
X362402Y295079
X353739Y310432
X337598Y310433
X338189Y303937
X321850Y288189
X329921Y251969
X343307Y258071
X350787Y258070
X366929Y257874
X357677Y225197
X345276Y225787
X339180Y232700
X327362Y223819
X314961Y229331
X416535Y203543
X451378Y292323
X455512
X463386Y303740
X448818Y311613
X309055Y297244
Y293110
X303740Y295472
X294291Y280709
X289961Y266535
X295693Y258834
X285433Y227755
X280118Y225394
X284646Y202559
X265551Y207480
X245472Y201378
X243110Y250984
X230512Y252362
X239173Y270472
X228346Y282874
X226378Y293701
X234449Y298819
X266142Y309842
X280118Y292519
X255315Y261417
X195472Y219291
X185433Y228149
X189764Y346850
X180709Y349410
X179133Y354330
X174409
X186208Y357822
X185826Y385432
X179527Y385039
X194476Y385249
X194094Y393700
X198425Y391339
X209646Y395669
X217913Y393109
X226575Y396457
X234252Y393110
X244882Y395472
X251575Y391339
X274016Y387008
X272047Y379527
X279134Y395276
X286023Y390747
X296063Y395276
X301575Y392717
X311417Y349999
X304331Y341535
X292323Y345276
X288779Y340945
X275787Y339173
X270669
X272047Y344291
X277953Y348819
X267323Y335630
X259646Y329921
X255906Y325394
X244291Y322244
X249606Y335630
X242323Y341732
X237992Y349803
X229921Y341929
X212007Y341732
X200394Y341929
X216535Y352362
X257480Y345079
Y364173
X164961Y346654
X161221Y341535
X167913Y388779
X313779Y395472
X322047Y391141
X332677Y394094
X342913Y390747
X365747Y393109
X365158Y386614
X371654Y384842
X367913Y366339
X347835Y359842
X343109Y364566
X337008Y350000
X328740Y349999
X322047Y341339
X341535Y420275
X442126Y362598
X442717Y332677
X444094Y327165
X446653Y323228
X445669Y318701
X444685Y313779
X437598Y319685
X463385Y320275
X468504Y320275
X473621Y320276
X478543Y320276
X483661
X488583
X493504
X498425
X503150Y327953
X513583Y320472
Y387598
X508465
X506890Y395079
X493504Y395472
Y387402
X483465
X478543
X473425
X487008Y380315
X512598Y418898
T03
X483465Y232874
T04
X506891Y212166
Y225945
Y239725
Y253504
X361024Y240158
X347244
X333466Y240119
X319686
X305907
X292127
X278346Y240158
X264567
X250787
X237008
X150394Y235433
Y249213
Y262992
Y276772
Y290551
Y304331
X175984Y405315
X189764
X203543
X217323
X231102
X244882
X258661
X272441
X286221
X300000
X313779
X327559
X341339
X355118
X403937Y405512
X417717
X431496
X445276
T05
X320276Y209252
Y219193
X330315
Y209252
X340256
X340354Y219193
X350295
Y209154
X360335
X360335Y219193
X310236
X300295
X290354
X280315
X270374
X260335
X250295
X240354
X230315
X220374
X210433
X200394
X190354
X180413
X170374
Y209154
X180413
X190354
X200394
X210433
X220374
X230315
X240354
X250295
X260335
X270374
X280315
X290354
X300295
X310236
T06
X355315Y214173
X175394
T07
X379528Y214173
X151181
Y407087
X379528
M30
